<svg width="11" height="11" viewBox="0 0 11 11" fill="none" xmlns="http://www.w3.org/2000/svg">
<g clip-path="url(#clip0_1025_149)">
<path d="M8.70833 0.458984H2.29167C1.6841 0.459712 1.10163 0.701389 0.672017 1.131C0.242404 1.56062 0.000727768 2.14309 0 2.75065L0 8.25065C0.000727768 8.85822 0.242404 9.44069 0.672017 9.8703C1.10163 10.2999 1.6841 10.5416 2.29167 10.5423H8.70833C9.3159 10.5416 9.89837 10.2999 10.328 9.8703C10.7576 9.44069 10.9993 8.85822 11 8.25065V2.75065C10.9993 2.14309 10.7576 1.56062 10.328 1.131C9.89837 0.701389 9.3159 0.459712 8.70833 0.458984ZM2.29167 1.37565H8.70833C8.98278 1.37619 9.25078 1.45885 9.47785 1.61298C9.70493 1.76711 9.88068 1.98567 9.9825 2.24053L6.47258 5.7509C6.21428 6.00817 5.86457 6.15262 5.5 6.15262C5.13543 6.15262 4.78572 6.00817 4.52742 5.7509L1.0175 2.24053C1.11932 1.98567 1.29507 1.76711 1.52215 1.61298C1.74922 1.45885 2.01722 1.37619 2.29167 1.37565ZM8.70833 9.62565H2.29167C1.92699 9.62565 1.57726 9.48079 1.31939 9.22292C1.06153 8.96506 0.916667 8.61532 0.916667 8.25065V3.43815L3.87933 6.39898C4.30954 6.8281 4.89237 7.06909 5.5 7.06909C6.10763 7.06909 6.69046 6.8281 7.12067 6.39898L10.0833 3.43815V8.25065C10.0833 8.61532 9.93847 8.96506 9.68061 9.22292C9.42274 9.48079 9.07301 9.62565 8.70833 9.62565Z" fill="#777479"/>
</g>
<defs>
<clipPath id="clip0_1025_149">
<rect width="11" height="11" fill="white"/>
</clipPath>
</defs>
</svg>
