<?xml version="1.0" encoding="UTF-8"?>
<svg version="1.1" xmlns="http://www.w3.org/2000/svg" width="512" height="512">
<path d="M0 0 C0.86589611 -0.00720654 1.73179221 -0.01441309 2.62392759 -0.02183801 C3.57061198 -0.01446372 4.51729636 -0.00708944 5.49266815 0.00050831 C7.00651746 -0.0054533 7.00651746 -0.0054533 8.55094957 -0.01153535 C11.94275658 -0.02118258 15.33414901 -0.00932532 18.72594452 0.00241566 C21.15351263 -0.0000115 23.58107975 -0.00373008 26.0086441 -0.00864697 C31.923746 -0.01709067 37.83873685 -0.01153186 43.75382316 0.00061598 C50.64045701 0.01423257 57.52706176 0.01259842 64.41370565 0.01048265 C76.70026475 0.00729221 88.98676589 0.01896358 101.2733078 0.03854847 C113.19878149 0.05755286 125.12418724 0.06463609 137.04967499 0.05905628 C150.03202039 0.05299996 163.01433591 0.05317286 175.99667883 0.06454211 C177.38071283 0.06574942 178.76474682 0.06695541 180.14878082 0.06816006 C180.82977326 0.0687636 181.5107657 0.06936713 182.21239427 0.06998896 C187.01407937 0.07387009 191.81575336 0.07347373 196.61743927 0.07157421 C203.07868114 0.06923185 209.53985445 0.07777331 216.00107765 0.09363461 C218.37630667 0.09788662 220.75154454 0.09872188 223.12677574 0.0959444 C226.36138555 0.09273515 229.59573192 0.10177285 232.83031464 0.1140337 C234.25034121 0.10836471 234.25034121 0.10836471 235.69905519 0.1025812 C236.99789935 0.11132949 236.99789935 0.11132949 238.32298279 0.12025452 C239.06962299 0.12112129 239.81626319 0.12198807 240.58552885 0.12288111 C243.00098794 0.41591672 244.59826897 1.09730308 246.66149139 2.37473011 C248.16146179 5.37467091 247.79643728 8.45272252 247.78453922 11.74234676 C247.78569307 12.51455285 247.78684691 13.28675894 247.78803572 14.08236521 C247.79070474 16.69718545 247.78617788 19.31194541 247.78174591 21.92676258 C247.78218155 23.80939781 247.78305633 25.69203297 247.78433508 27.57466781 C247.78658138 32.76927445 247.7825569 37.96386064 247.77755702 43.15846467 C247.77325464 48.75221047 247.77469879 54.34595504 247.77545929 59.93970203 C247.77598466 69.6383145 247.77283649 79.33692026 247.76722145 89.03553104 C247.75910822 103.05824441 247.75649141 117.08095452 247.75523346 131.10366999 C247.75304266 153.85239136 247.74639038 176.60110855 247.73693085 199.34982777 C247.72775019 221.4533432 247.72066473 243.55685768 247.71642303 265.66037464 C247.71629151 266.34140108 247.71615998 267.02242753 247.71602447 267.72409114 C247.71470598 274.56308226 247.71343016 281.40207338 247.71218561 288.24106451 C247.70174007 345.61895554 247.68408971 402.99684266 247.66149139 460.37473011 C248.39398605 460.36584766 249.12648071 460.35696522 249.88117218 460.34781361 C256.78201918 460.26768747 263.68279672 460.20677585 270.58398914 460.16748142 C274.13207901 460.14660035 277.67978474 460.11827466 281.2276535 460.0729723 C285.30589753 460.02122314 289.38373765 460.00178937 293.46227264 459.98410511 C295.37487633 459.9531374 295.37487633 459.9531374 297.32611847 459.92154408 C298.50711624 459.92124195 299.68811401 459.92093983 300.9048996 459.92062855 C301.94636642 459.9117461 302.98783325 459.90286366 304.06085968 459.89371204 C306.66149139 460.37473011 306.66149139 460.37473011 308.49701691 462.27443409 C309.78360144 464.59497302 310.04744371 465.9627148 310.05992889 468.59738636 C310.06379608 469.38306995 310.06766327 470.16875355 310.07164764 470.97824574 C310.0542453 472.195443 310.0542453 472.195443 310.03649139 473.43723011 C310.05389374 474.66022816 310.05389374 474.66022816 310.07164764 475.90793324 C310.06778046 476.69232777 310.06391327 477.4767223 310.05992889 478.28488636 C310.0565451 478.99781849 310.05316132 479.71075062 310.04967499 480.44528675 C309.52718589 483.0422876 308.77799981 483.78110347 306.66149139 485.37473011 C303.89424896 485.7507776 303.89424896 485.7507776 300.45983124 485.75225353 C299.15291824 485.76007677 297.84600525 485.76790002 296.49948883 485.77596033 C295.04046761 485.7694735 293.58144763 485.7627035 292.12242889 485.75568104 C290.5792991 485.75913545 289.03617176 485.76389855 287.49304962 485.76986277 C283.24136422 485.7824323 278.98987981 485.77617549 274.73819351 485.76690412 C270.15735484 485.76013822 265.57655162 485.77058259 260.99571991 485.77884388 C252.01742153 485.79220978 243.03919824 485.78929079 234.06089687 485.78060596 C226.76645985 485.77384103 219.47204393 485.77290752 212.17760468 485.77617741 C211.14089221 485.77663711 210.10417974 485.7770968 209.03605175 485.77757043 C206.93023554 485.77852957 204.82441933 485.77950221 202.71860313 485.78048821 C182.95508293 485.78905047 163.19160442 485.77919487 143.42809105 485.76308711 C126.45639111 485.74968317 109.48475272 485.75201103 92.51305389 485.76584339 C72.82204931 485.78188445 53.13108131 485.78822642 33.44007111 485.7790066 C31.34184011 485.77805092 29.24360912 485.7771078 27.14537811 485.77617741 C26.11290797 485.77571458 25.08043783 485.77525175 24.01668072 485.7747749 C16.72786522 485.77218058 9.43907284 485.7765655 2.15026093 485.78361607 C-6.72787097 485.79201491 -15.60592325 485.78978505 -24.48404598 485.77377383 C-29.01702953 485.76586928 -33.54988018 485.76283651 -38.08286285 485.77272129 C-42.22794085 485.78162373 -46.37276203 485.77680942 -50.51781654 485.76078863 C-52.02180539 485.75742184 -53.52581568 485.75917716 -55.02979088 485.766416 C-57.06546209 485.77546662 -59.10119359 485.76443906 -61.13684845 485.75225353 C-62.83688522 485.75152295 -62.83688522 485.75152295 -64.57126617 485.7507776 C-67.33850861 485.37473011 -67.33850861 485.37473011 -69.20185089 483.97172511 C-70.63733749 481.95487792 -70.72525627 480.74782416 -70.73694611 478.28488636 C-70.74081329 477.50049183 -70.74468048 476.7160973 -70.74866486 475.90793324 C-70.73706329 475.0926012 -70.72546173 474.27726917 -70.71350861 473.43723011 C-70.72511017 472.62576527 -70.73671173 471.81430042 -70.74866486 470.97824574 C-70.74286407 469.79972034 -70.74286407 469.79972034 -70.73694611 468.59738636 C-70.73356232 467.8833263 -70.73017853 467.16926624 -70.7266922 466.433568 C-70.20455753 463.66428394 -69.2975833 462.40230312 -67.33850861 460.37473011 C-64.73787689 459.89371204 -64.73787689 459.89371204 -61.58191681 459.92062855 C-59.81042015 459.92108173 -59.81042015 459.92108173 -58.00313568 459.92154408 C-56.72806656 459.94218922 -55.45299744 459.96283436 -54.13928986 459.98410511 C-52.83396805 459.9897649 -51.52864624 459.99542469 -50.18376923 460.00125599 C-46.71631914 460.01651619 -43.24954112 460.05579979 -39.78235626 460.10007191 C-36.24322349 460.1410172 -32.70398193 460.15926532 -29.16468048 460.17941761 C-22.22234741 460.22229479 -15.28046029 460.29054996 -8.33850861 460.37473011 C-8.34002749 459.40887114 -8.34154637 458.44301216 -8.34311128 457.44788474 C-8.4326975 400.25548312 -8.50122231 343.06308597 -8.54276992 285.87062858 C-8.54775943 279.00977232 -8.55294562 272.14891622 -8.55823517 265.28806019 C-8.5587582 264.60530935 -8.55928124 263.92255852 -8.55982013 263.21911827 C-8.57687655 241.07473889 -8.60692999 218.93040024 -8.64369749 196.78604555 C-8.68246889 173.39238261 -8.70648577 149.9987537 -8.71486259 126.60505611 C-8.72036232 112.58460746 -8.73775823 98.56427571 -8.77017447 84.54386304 C-8.79125132 74.9411088 -8.7977242 65.33841536 -8.79251412 55.73563965 C-8.78994167 50.18798274 -8.79399818 44.64053068 -8.81533051 39.09290981 C-8.83469351 34.02063412 -8.83584577 28.94870243 -8.82210419 23.87641142 C-8.82040405 22.03517895 -8.82556478 20.19392563 -8.83804134 18.35273465 C-8.85394848 15.86173174 -8.8455336 13.37199282 -8.83069992 10.88101196 C-8.846462 9.79305472 -8.846462 9.79305472 -8.86254251 8.68311855 C-8.81974645 5.53232668 -8.73302264 3.81097265 -6.57890344 1.42900813 C-4.16526053 0.29320357 -2.65455532 -0.0001956 0 0 Z M10.66149139 17.37473011 C7.4129021 22.24761405 8.29263635 27.64762825 8.28649139 33.37473011 C8.26199921 34.57613636 8.23750702 35.77754261 8.21227264 37.01535511 C8.20840546 38.16519886 8.20453827 39.31504261 8.20055389 40.49973011 C8.19233612 41.55418324 8.18411835 42.60863636 8.17565155 43.69504261 C8.42938214 46.44924314 8.42938214 46.44924314 10.34654999 48.21701527 C13.13432776 49.61119816 15.04960175 49.76218816 18.16149139 49.77316761 C19.73930389 49.77896839 19.73930389 49.77896839 21.34899139 49.78488636 C22.44211639 49.7732848 23.53524139 49.76168324 24.66149139 49.74973011 C25.75461639 49.76133167 26.84774139 49.77293324 27.97399139 49.78488636 C29.02586639 49.78101917 30.07774139 49.77715199 31.16149139 49.77316761 C32.12055389 49.76978382 33.07961639 49.76640003 34.06774139 49.7629137 C37.19336658 49.29512906 38.5336825 48.72111572 40.66149139 46.37473011 C41.24647915 43.51025778 41.24647915 43.51025778 41.12242889 40.24582386 C41.11662811 38.44661488 41.11662811 38.44661488 41.11071014 36.61105824 C41.08621796 35.35744495 41.06172577 34.10383167 41.03649139 32.81223011 C41.03520233 31.55474964 41.03391327 30.29726917 41.03258514 29.00168324 C41.4524095 22.5986364 41.4524095 22.5986364 38.66149139 17.37473011 C34.01191164 16.91297365 29.33132864 17.05073937 24.66149139 17.06223011 C22.69696014 17.03806019 22.69696014 17.03806019 20.69274139 17.01340199 C19.44492889 17.01275745 18.19711639 17.01211292 16.91149139 17.01144886 C15.18672577 17.00697742 15.18672577 17.00697742 13.42711639 17.00241566 C12.51446014 17.12527943 11.60180389 17.2481432 10.66149139 17.37473011 Z M56.8033371 19.08005238 C55.44900782 21.80174169 55.28835057 23.62243039 55.29821014 26.65598011 C55.29885468 27.66273792 55.29949921 28.66949574 55.30016327 29.70676136 C55.31627655 30.75219105 55.33238983 31.79762074 55.34899139 32.87473011 C55.34576874 33.9201598 55.34254608 34.96558949 55.33922577 36.04269886 C55.24354787 42.51484331 55.24354787 42.51484331 57.66149139 48.37473011 C60.24043707 49.66420295 62.11671029 49.50420861 65.00133514 49.50754261 C66.59558319 49.5094762 66.59558319 49.5094762 68.22203827 49.51144886 C69.3364328 49.50758167 70.45082733 49.50371449 71.59899139 49.49973011 C73.26478241 49.50553089 73.26478241 49.50553089 74.96422577 49.51144886 C76.02834686 49.5101598 77.09246796 49.50887074 78.18883514 49.50754261 C79.16586395 49.50641468 80.14289276 49.50528675 81.1495285 49.50412464 C83.79013703 49.4801848 83.79013703 49.4801848 86.66149139 48.37473011 C89.68766288 43.84780009 88.99098641 38.67509544 88.97399139 33.43723011 C88.99010468 32.44787464 89.00621796 31.45851917 89.02281952 30.43918324 C89.02346405 29.48076527 89.02410858 28.5223473 89.02477264 27.53488636 C89.0277536 26.66484974 89.03073456 25.79481312 89.03380585 24.89841175 C88.55756335 21.67026838 87.76273826 19.88153888 85.66149139 17.37473011 C82.8238551 16.62037311 82.8238551 16.62037311 79.56774139 16.74582386 C78.37278046 16.74389027 77.17781952 16.74195667 75.94664764 16.73996449 C74.0729953 16.77573597 74.0729953 16.77573597 72.16149139 16.81223011 C70.91238983 16.80127308 69.66328827 16.79031605 68.37633514 16.77902699 C62.09637248 16.42254544 62.09637248 16.42254544 56.8033371 19.08005238 Z M103.66149139 19.37473011 C103.17392877 23.83531354 103.29108819 28.32805464 103.28649139 32.81223011 C103.26199921 34.06584339 103.23750702 35.31945667 103.21227264 36.61105824 C103.20840546 37.81053089 103.20453827 39.01000355 103.20055389 40.24582386 C103.19233612 41.34853626 103.18411835 42.45124866 103.17565155 43.58737659 C103.41624913 46.43719107 103.41624913 46.43719107 105.34654999 48.23068714 C109.83264341 50.44771243 114.7545779 49.84405561 119.66149139 49.81223011 C121.30117889 49.84220081 121.30117889 49.84220081 122.97399139 49.87277699 C124.02586639 49.87213245 125.07774139 49.87148792 126.16149139 49.87082386 C127.60008514 49.8736034 127.60008514 49.8736034 129.06774139 49.87643909 C132.4789801 49.21660329 133.63376709 48.17323024 135.66149139 45.37473011 C136.25693954 42.63105237 136.25693954 42.63105237 136.15758514 39.62082386 C136.15822968 38.51931995 136.15887421 37.41781605 136.15953827 36.28293324 C136.12956757 34.56493519 136.12956757 34.56493519 136.09899139 32.81223011 C136.10608124 31.66303089 136.11317108 30.51383167 136.12047577 29.32980824 C136.34806834 23.69061166 136.34806834 23.69061166 134.51744843 18.54611683 C131.82322692 16.84565974 129.70081303 17.00288421 126.53258514 17.01144886 C125.33311249 17.01209339 124.13363983 17.01273792 122.89781952 17.01340199 C121.64420624 17.02951527 120.39059296 17.04562855 119.09899139 17.06223011 C117.84151093 17.05900745 116.58403046 17.0557848 115.28844452 17.05246449 C108.88615992 16.59941598 108.88615992 16.59941598 103.66149139 19.37473011 Z M152.66149139 17.37473011 C149.4129021 22.24761405 150.29263635 27.64762825 150.28649139 33.37473011 C150.26199921 34.57613636 150.23750702 35.77754261 150.21227264 37.01535511 C150.20840546 38.16519886 150.20453827 39.31504261 150.20055389 40.49973011 C150.19233612 41.55418324 150.18411835 42.60863636 150.17565155 43.69504261 C150.42938214 46.44924314 150.42938214 46.44924314 152.34654999 48.21701527 C155.13432776 49.61119816 157.04960175 49.76218816 160.16149139 49.77316761 C161.73930389 49.77896839 161.73930389 49.77896839 163.34899139 49.78488636 C164.44211639 49.7732848 165.53524139 49.76168324 166.66149139 49.74973011 C167.75461639 49.76133167 168.84774139 49.77293324 169.97399139 49.78488636 C171.02586639 49.78101917 172.07774139 49.77715199 173.16149139 49.77316761 C174.12055389 49.76978382 175.07961639 49.76640003 176.06774139 49.7629137 C179.19336658 49.29512906 180.5336825 48.72111572 182.66149139 46.37473011 C183.24647915 43.51025778 183.24647915 43.51025778 183.12242889 40.24582386 C183.11662811 38.44661488 183.11662811 38.44661488 183.11071014 36.61105824 C183.08621796 35.35744495 183.06172577 34.10383167 183.03649139 32.81223011 C183.03520233 31.55474964 183.03391327 30.29726917 183.03258514 29.00168324 C183.4524095 22.5986364 183.4524095 22.5986364 180.66149139 17.37473011 C176.01191164 16.91297365 171.33132864 17.05073937 166.66149139 17.06223011 C164.69696014 17.03806019 164.69696014 17.03806019 162.69274139 17.01340199 C161.44492889 17.01275745 160.19711639 17.01211292 158.91149139 17.01144886 C157.18672577 17.00697742 157.18672577 17.00697742 155.42711639 17.00241566 C154.51446014 17.12527943 153.60180389 17.2481432 152.66149139 17.37473011 Z M198.66149139 18.37473011 C197.04057536 23.23747822 197.39368951 28.21962517 197.34899139 33.31223011 C197.31998749 34.40986683 197.29098358 35.50750355 197.26110077 36.63840199 C197.25272186 37.6947887 197.24434296 38.75117542 197.23571014 39.83957386 C197.22112762 40.80500111 197.2065451 41.77042835 197.19152069 42.76511097 C197.80951689 46.19667529 198.85968107 47.33721089 201.66149139 49.37473011 C204.29049869 49.96927757 204.29049869 49.96927757 207.16149139 49.87082386 C208.21336639 49.87146839 209.26524139 49.87211292 210.34899139 49.87277699 C211.44211639 49.85279652 212.53524139 49.83281605 213.66149139 49.81223011 C214.75461639 49.81931995 215.84774139 49.8264098 216.97399139 49.83371449 C222.65557257 49.91867728 222.65557257 49.91867728 227.9764328 48.23068714 C230.37725182 45.58637735 230.1487551 43.7784395 230.12242889 40.24582386 C230.11662811 38.44661488 230.11662811 38.44661488 230.11071014 36.61105824 C230.08621796 35.35744495 230.06172577 34.10383167 230.03649139 32.81223011 C230.03520233 31.55474964 230.03391327 30.29726917 230.03258514 29.00168324 C230.4524095 22.5986364 230.4524095 22.5986364 227.66149139 17.37473011 C224.87785454 17.07952137 224.87785454 17.07952137 221.63024139 17.14426136 C220.42754608 17.14619495 219.22485077 17.14812855 217.98571014 17.15012074 C216.72371796 17.16236683 215.46172577 17.17461292 214.16149139 17.18723011 C212.89949921 17.18787464 211.63750702 17.18851917 210.33727264 17.18918324 C204.31875681 16.89594268 204.31875681 16.89594268 198.66149139 18.37473011 Z M9.81920624 63.53244495 C8.17187302 66.15386555 8.27294546 68.16733111 8.26305389 71.24973011 C8.25918671 72.39957386 8.25531952 73.54941761 8.25133514 74.73410511 C8.26293671 75.93551136 8.27453827 77.13691761 8.28649139 78.37473011 C8.27488983 79.57613636 8.26328827 80.77754261 8.25133514 82.01535511 C8.25520233 83.16519886 8.25906952 84.31504261 8.26305389 85.49973011 C8.26643768 86.55418324 8.26982147 87.60863636 8.2733078 88.69504261 C8.47579052 91.34884534 8.47579052 91.34884534 9.8033371 93.21921253 C12.50080125 94.89666593 14.63079956 94.74655269 17.79039764 94.73801136 C18.9898703 94.73736683 20.18934296 94.7367223 21.42516327 94.73605824 C23.30558319 94.71188831 23.30558319 94.71188831 25.22399139 94.68723011 C27.1102121 94.69206409 27.1102121 94.69206409 29.03453827 94.69699574 C35.43682287 95.15004424 35.43682287 95.15004424 40.66149139 92.37473011 C41.12252213 87.91318203 40.98547933 83.41982373 40.97399139 78.93723011 C40.99010468 77.68361683 41.00621796 76.43000355 41.02281952 75.13840199 C41.02346405 73.93892933 41.02410858 72.73945667 41.02477264 71.50363636 C41.0277536 70.40092396 41.03073456 69.29821156 41.03380585 68.16208363 C40.86071161 65.41125456 40.86071161 65.41125456 39.50597382 63.51657581 C36.88170906 61.89199788 34.86004197 61.98615578 31.78649139 61.97629261 C30.06172577 61.97049183 30.06172577 61.97049183 28.30211639 61.96457386 C27.10071014 61.97617542 25.89930389 61.98777699 24.66149139 61.99973011 C23.46008514 61.98812855 22.25867889 61.97652699 21.02086639 61.96457386 C19.87102264 61.96844105 18.72117889 61.97230824 17.53649139 61.97629261 C15.95481171 61.98136829 15.95481171 61.98136829 14.34117889 61.98654652 C11.68469046 62.18660737 11.68469046 62.18660737 9.81920624 63.53244495 Z M56.81700897 64.57126331 C55.59795777 67.52887265 55.27486928 69.56939052 55.26305389 72.75363636 C55.25918671 73.75717152 55.25531952 74.76070667 55.25133514 75.79465199 C55.26293671 76.83170277 55.27453827 77.86875355 55.28649139 78.93723011 C55.27488983 79.97814808 55.26328827 81.01906605 55.25133514 82.09152699 C55.25520233 83.09377308 55.25906952 84.09601917 55.26305389 85.12863636 C55.26643768 86.03943958 55.26982147 86.95024281 55.2733078 87.88864613 C55.75111246 90.94869947 56.3771697 92.27310607 58.66149139 94.37473011 C63.11053118 95.23106837 67.6397348 94.97689464 72.16149139 94.93723011 C74.03514374 94.97300159 74.03514374 94.97300159 75.94664764 95.00949574 C77.14160858 95.00756214 78.33656952 95.00562855 79.56774139 95.00363636 C80.66408905 95.00436146 81.76043671 95.00508656 82.89000702 95.00583363 C85.82722732 94.63075382 85.82722732 94.63075382 87.51964569 92.15793324 C88.70507009 89.26850879 89.03541188 87.31979374 89.02477264 84.21457386 C89.02412811 83.25615589 89.02348358 82.29773792 89.02281952 81.31027699 C89.00670624 80.32092152 88.99059296 79.33156605 88.97399139 78.31223011 C88.97721405 77.31900745 88.98043671 76.3257848 88.98375702 75.30246449 C89.03933064 69.04217233 89.03933064 69.04217233 86.66149139 63.37473011 C82.30134062 61.19465472 76.51318795 62.05586347 71.72399139 61.99973011 C70.51807343 61.9623473 69.31215546 61.92496449 68.06969452 61.88644886 C66.33816132 61.86904652 66.33816132 61.86904652 64.57164764 61.85129261 C63.51082977 61.83147327 62.4500119 61.81165394 61.35704803 61.79123402 C58.48986606 62.12385238 58.48986606 62.12385238 56.81700897 64.57126331 Z M104.81700897 63.51877308 C103.13854343 66.21467316 103.2896714 68.34499443 103.29821014 71.50363636 C103.29885468 72.70310902 103.29949921 73.90258167 103.30016327 75.13840199 C103.31627655 76.39201527 103.33238983 77.64562855 103.34899139 78.93723011 C103.34576874 80.19471058 103.34254608 81.45219105 103.33922577 82.74777699 C102.88617727 89.15006158 102.88617727 89.15006158 105.66149139 94.37473011 C110.12303948 94.83576084 114.61639778 94.69871805 119.09899139 94.68723011 C120.35260468 94.70334339 121.60621796 94.71945667 122.89781952 94.73605824 C124.09729218 94.73670277 125.29676483 94.7373473 126.53258514 94.73801136 C127.63529755 94.74099232 128.73800995 94.74397327 129.87413788 94.74704456 C132.62788411 94.57620161 132.62788411 94.57620161 134.51964569 93.20334339 C136.11286964 90.65186865 136.049849 88.75096484 136.05992889 85.75363636 C136.06379608 84.65342152 136.06766327 83.55320667 136.07164764 82.41965199 C136.06004608 81.27045277 136.04844452 80.12125355 136.03649139 78.93723011 C136.04809296 77.79189808 136.05969452 76.64656605 136.07164764 75.46652699 C136.06584686 73.81427113 136.06584686 73.81427113 136.05992889 72.12863636 C136.0565451 71.12131458 136.05316132 70.11399281 136.04967499 69.07614613 C135.59248911 65.89453499 135.04500305 64.53713678 132.66149139 62.37473011 C129.91272079 61.77421746 129.91272079 61.77421746 126.78649139 61.87863636 C125.63664764 61.87799183 124.48680389 61.8773473 123.30211639 61.87668324 C122.10071014 61.8966637 120.89930389 61.91664417 119.66149139 61.93723011 C118.46008514 61.93014027 117.25867889 61.92305042 116.02086639 61.91574574 C110.16979446 61.66502788 110.16979446 61.66502788 104.81700897 63.51877308 Z M151.81920624 63.53244495 C150.17187302 66.15386555 150.27294546 68.16733111 150.26305389 71.24973011 C150.25918671 72.39957386 150.25531952 73.54941761 150.25133514 74.73410511 C150.26293671 75.93551136 150.27453827 77.13691761 150.28649139 78.37473011 C150.27488983 79.57613636 150.26328827 80.77754261 150.25133514 82.01535511 C150.25520233 83.16519886 150.25906952 84.31504261 150.26305389 85.49973011 C150.26643768 86.55418324 150.26982147 87.60863636 150.2733078 88.69504261 C150.47336865 91.35153105 150.47336865 91.35153105 151.81920624 93.21701527 C154.44062684 94.86434849 156.45409239 94.76327605 159.53649139 94.77316761 C161.26125702 94.77896839 161.26125702 94.77896839 163.02086639 94.78488636 C164.22227264 94.7732848 165.42367889 94.76168324 166.66149139 94.74973011 C167.86289764 94.76133167 169.06430389 94.77293324 170.30211639 94.78488636 C171.45196014 94.78101917 172.60180389 94.77715199 173.78649139 94.77316761 C174.84094452 94.76978382 175.89539764 94.76640003 176.98180389 94.7629137 C179.63829233 94.56285285 179.63829233 94.56285285 181.50377655 93.21701527 C183.15110977 90.59559467 183.05003733 88.58212911 183.05992889 85.49973011 C183.06379608 84.34988636 183.06766327 83.20004261 183.07164764 82.01535511 C183.06004608 80.81394886 183.04844452 79.61254261 183.03649139 78.37473011 C183.04809296 77.17332386 183.05969452 75.97191761 183.07164764 74.73410511 C183.06778046 73.58426136 183.06391327 72.43441761 183.05992889 71.24973011 C183.0565451 70.19527699 183.05316132 69.14082386 183.04967499 68.05441761 C182.84961413 65.39792917 182.84961413 65.39792917 181.50377655 63.53244495 C178.88235595 61.88511173 176.8688904 61.98618417 173.78649139 61.97629261 C172.06172577 61.97049183 172.06172577 61.97049183 170.30211639 61.96457386 C169.10071014 61.97617542 167.89930389 61.98777699 166.66149139 61.99973011 C165.46008514 61.98812855 164.25867889 61.97652699 163.02086639 61.96457386 C161.87102264 61.96844105 160.72117889 61.97230824 159.53649139 61.97629261 C157.95481171 61.98136829 157.95481171 61.98136829 156.34117889 61.98654652 C153.68469046 62.18660737 153.68469046 62.18660737 151.81920624 63.53244495 Z M198.81920624 64.0597887 C197.42502334 66.84756648 197.27403334 68.76284047 197.26305389 71.87473011 C197.25918671 72.92660511 197.25531952 73.97848011 197.25133514 75.06223011 C197.26293671 76.15535511 197.27453827 77.24848011 197.28649139 78.37473011 C197.27488983 79.46785511 197.26328827 80.56098011 197.25133514 81.68723011 C197.25520233 82.73910511 197.25906952 83.79098011 197.26305389 84.87473011 C197.26643768 85.83379261 197.26982147 86.79285511 197.2733078 87.78098011 C197.74109244 90.90660529 198.31510578 92.24692122 200.66149139 94.37473011 C203.52596373 94.95971787 203.52596373 94.95971787 206.79039764 94.83566761 C208.58960663 94.82986683 208.58960663 94.82986683 210.42516327 94.82394886 C211.67877655 94.79945667 212.93238983 94.77496449 214.22399139 94.74973011 C215.48147186 94.74844105 216.73895233 94.74715199 218.03453827 94.74582386 C224.43758511 95.16564822 224.43758511 95.16564822 229.66149139 92.37473011 C230.12324786 87.72515036 229.98548214 83.04456735 229.97399139 78.37473011 C229.99010468 77.06504261 230.00621796 75.75535511 230.02281952 74.40598011 C230.02346405 73.15816761 230.02410858 71.91035511 230.02477264 70.62473011 C230.0277536 69.47488636 230.03073456 68.32504261 230.03380585 67.14035511 C229.91094208 66.22769886 229.78807831 65.31504261 229.66149139 64.37473011 C224.78860746 61.12614082 219.38859325 62.00587507 213.66149139 61.99973011 C212.46008514 61.97523792 211.25867889 61.95074574 210.02086639 61.92551136 C208.29610077 61.91971058 208.29610077 61.91971058 206.53649139 61.91379261 C205.48203827 61.90557484 204.42758514 61.89735706 203.34117889 61.88889027 C200.58697837 62.14262086 200.58697837 62.14262086 198.81920624 64.0597887 Z M10.66149139 108.37473011 C7.4129021 113.24761405 8.29263635 118.64762825 8.28649139 124.37473011 C8.26199921 125.57613636 8.23750702 126.77754261 8.21227264 128.01535511 C8.20840546 129.16519886 8.20453827 130.31504261 8.20055389 131.49973011 C8.19233612 132.55418324 8.18411835 133.60863636 8.17565155 134.69504261 C8.42938214 137.44924314 8.42938214 137.44924314 10.34654999 139.21701527 C13.13432776 140.61119816 15.04960175 140.76218816 18.16149139 140.77316761 C19.73930389 140.77896839 19.73930389 140.77896839 21.34899139 140.78488636 C22.44211639 140.7732848 23.53524139 140.76168324 24.66149139 140.74973011 C25.75461639 140.76133167 26.84774139 140.77293324 27.97399139 140.78488636 C29.02586639 140.78101917 30.07774139 140.77715199 31.16149139 140.77316761 C32.12055389 140.76978382 33.07961639 140.76640003 34.06774139 140.7629137 C37.19336658 140.29512906 38.5336825 139.72111572 40.66149139 137.37473011 C41.24647915 134.51025778 41.24647915 134.51025778 41.12242889 131.24582386 C41.11662811 129.44661488 41.11662811 129.44661488 41.11071014 127.61105824 C41.08621796 126.35744495 41.06172577 125.10383167 41.03649139 123.81223011 C41.03520233 122.55474964 41.03391327 121.29726917 41.03258514 120.00168324 C41.4524095 113.5986364 41.4524095 113.5986364 38.66149139 108.37473011 C34.01191164 107.91297365 29.33132864 108.05073937 24.66149139 108.06223011 C22.69696014 108.03806019 22.69696014 108.03806019 20.69274139 108.01340199 C19.44492889 108.01275745 18.19711639 108.01211292 16.91149139 108.01144886 C15.18672577 108.00697742 15.18672577 108.00697742 13.42711639 108.00241566 C12.51446014 108.12527943 11.60180389 108.2481432 10.66149139 108.37473011 Z M56.8033371 110.08005238 C55.44900782 112.80174169 55.28835057 114.62243039 55.29821014 117.65598011 C55.29885468 118.66273792 55.29949921 119.66949574 55.30016327 120.70676136 C55.31627655 121.75219105 55.33238983 122.79762074 55.34899139 123.87473011 C55.34576874 124.9201598 55.34254608 125.96558949 55.33922577 127.04269886 C55.20283529 133.53357779 55.20283529 133.53357779 57.66149139 139.37473011 C60.68041729 140.38103874 62.72445315 140.50371011 65.88024139 140.50754261 C66.89473358 140.50883167 67.90922577 140.51012074 68.95446014 140.51144886 C70.54194061 140.50564808 70.54194061 140.50564808 72.16149139 140.49973011 C73.21981171 140.5035973 74.27813202 140.50746449 75.36852264 140.51144886 C76.89026093 140.50951527 76.89026093 140.50951527 78.44274139 140.50754261 C79.37151093 140.50641468 80.30028046 140.50528675 81.25719452 140.50412464 C83.80707321 140.47330745 83.80707321 140.47330745 86.66149139 139.37473011 C89.68766288 134.84780009 88.99098641 129.67509544 88.97399139 124.43723011 C88.99010468 123.44787464 89.00621796 122.45851917 89.02281952 121.43918324 C89.02346405 120.48076527 89.02410858 119.5223473 89.02477264 118.53488636 C89.0277536 117.66484974 89.03073456 116.79481312 89.03380585 115.89841175 C88.55756335 112.67026838 87.76273826 110.88153888 85.66149139 108.37473011 C82.8238551 107.62037311 82.8238551 107.62037311 79.56774139 107.74582386 C78.37278046 107.74389027 77.17781952 107.74195667 75.94664764 107.73996449 C74.0729953 107.77573597 74.0729953 107.77573597 72.16149139 107.81223011 C70.91238983 107.80127308 69.66328827 107.79031605 68.37633514 107.77902699 C62.09637248 107.42254544 62.09637248 107.42254544 56.8033371 110.08005238 Z M103.66149139 110.37473011 C103.17392877 114.83531354 103.29108819 119.32805464 103.28649139 123.81223011 C103.26199921 125.06584339 103.23750702 126.31945667 103.21227264 127.61105824 C103.20840546 128.81053089 103.20453827 130.01000355 103.20055389 131.24582386 C103.19233612 132.34853626 103.18411835 133.45124866 103.17565155 134.58737659 C103.41624913 137.43719107 103.41624913 137.43719107 105.34654999 139.23068714 C109.83264341 141.44771243 114.7545779 140.84405561 119.66149139 140.81223011 C121.30117889 140.84220081 121.30117889 140.84220081 122.97399139 140.87277699 C124.02586639 140.87213245 125.07774139 140.87148792 126.16149139 140.87082386 C127.60008514 140.8736034 127.60008514 140.8736034 129.06774139 140.87643909 C132.4789801 140.21660329 133.63376709 139.17323024 135.66149139 136.37473011 C136.25693954 133.63105237 136.25693954 133.63105237 136.15758514 130.62082386 C136.15822968 129.51931995 136.15887421 128.41781605 136.15953827 127.28293324 C136.12956757 125.56493519 136.12956757 125.56493519 136.09899139 123.81223011 C136.10608124 122.66303089 136.11317108 121.51383167 136.12047577 120.32980824 C136.34806834 114.69061166 136.34806834 114.69061166 134.51744843 109.54611683 C131.82322692 107.84565974 129.70081303 108.00288421 126.53258514 108.01144886 C125.33311249 108.01209339 124.13363983 108.01273792 122.89781952 108.01340199 C121.64420624 108.02951527 120.39059296 108.04562855 119.09899139 108.06223011 C117.84151093 108.05900745 116.58403046 108.0557848 115.28844452 108.05246449 C108.88615992 107.59941598 108.88615992 107.59941598 103.66149139 110.37473011 Z M150.66149139 110.37473011 C150.17392877 114.83531354 150.29108819 119.32805464 150.28649139 123.81223011 C150.26199921 125.06584339 150.23750702 126.31945667 150.21227264 127.61105824 C150.20840546 128.81053089 150.20453827 130.01000355 150.20055389 131.24582386 C150.19233612 132.34853626 150.18411835 133.45124866 150.17565155 134.58737659 C150.41650133 137.43727166 150.41650133 137.43727166 152.34654999 139.23288441 C155.13219825 140.60690644 157.05989251 140.76222447 160.16149139 140.77316761 C161.73930389 140.77896839 161.73930389 140.77896839 163.34899139 140.78488636 C164.44211639 140.7732848 165.53524139 140.76168324 166.66149139 140.74973011 C167.75461639 140.76133167 168.84774139 140.77293324 169.97399139 140.78488636 C171.02586639 140.78101917 172.07774139 140.77715199 173.16149139 140.77316761 C174.12055389 140.76978382 175.07961639 140.76640003 176.06774139 140.7629137 C179.19336658 140.29512906 180.5336825 139.72111572 182.66149139 137.37473011 C183.24647915 134.51025778 183.24647915 134.51025778 183.12242889 131.24582386 C183.11662811 129.44661488 183.11662811 129.44661488 183.11071014 127.61105824 C183.08621796 126.35744495 183.06172577 125.10383167 183.03649139 123.81223011 C183.03520233 122.55474964 183.03391327 121.29726917 183.03258514 120.00168324 C183.4524095 113.5986364 183.4524095 113.5986364 180.66149139 108.37473011 C177.78061216 108.06274472 177.78061216 108.06274472 174.41149139 108.10910511 C173.16367889 108.10652699 171.91586639 108.10394886 170.63024139 108.10129261 C169.32055389 108.10902699 168.01086639 108.11676136 166.66149139 108.12473011 C164.69696014 108.11312855 164.69696014 108.11312855 162.69274139 108.10129261 C160.82102264 108.1051598 160.82102264 108.1051598 158.91149139 108.10910511 C157.76164764 108.11136097 156.61180389 108.11361683 155.42711639 108.11594105 C152.51949308 108.09129335 152.51949308 108.09129335 150.66149139 110.37473011 Z M198.80113983 109.54391956 C197.20405028 112.10959534 197.28934742 114.02052703 197.29821014 117.03098011 C197.29885468 118.13570667 197.29949921 119.24043324 197.30016327 120.37863636 C197.31627655 121.5323473 197.33238983 122.68605824 197.34899139 123.87473011 C197.34576874 125.02844105 197.34254608 126.18215199 197.33922577 127.37082386 C197.15760087 133.73760977 197.15760087 133.73760977 199.66149139 139.37473011 C204.3821156 140.94827151 209.15486879 140.60053868 214.09899139 140.62473011 C215.1489328 140.64535511 216.19887421 140.66598011 217.28063202 140.68723011 C218.29190155 140.69238636 219.30317108 140.69754261 220.34508514 140.70285511 C221.73038422 140.71687366 221.73038422 140.71687366 223.14366913 140.73117542 C226.24053338 140.29275578 227.55073353 139.69203789 229.66149139 137.37473011 C230.24647915 134.51025778 230.24647915 134.51025778 230.12242889 131.24582386 C230.11662811 129.44661488 230.11662811 129.44661488 230.11071014 127.61105824 C230.08621796 126.35744495 230.06172577 125.10383167 230.03649139 123.81223011 C230.03520233 122.55474964 230.03391327 121.29726917 230.03258514 120.00168324 C230.4524095 113.5986364 230.4524095 113.5986364 227.66149139 108.37473011 C223.19994331 107.91369938 218.70658501 108.05074217 214.22399139 108.06223011 C212.97037811 108.04611683 211.71676483 108.03000355 210.42516327 108.01340199 C209.22569061 108.01275745 208.02621796 108.01211292 206.79039764 108.01144886 C205.68768524 108.0084679 204.58497284 108.00548695 203.44884491 108.00241566 C200.69532919 108.17382089 200.69532919 108.17382089 198.80113983 109.54391956 Z M9.81920624 154.53244495 C8.17187302 157.15386555 8.27294546 159.16733111 8.26305389 162.24973011 C8.25918671 163.39957386 8.25531952 164.54941761 8.25133514 165.73410511 C8.26293671 166.93551136 8.27453827 168.13691761 8.28649139 169.37473011 C8.27488983 170.57613636 8.26328827 171.77754261 8.25133514 173.01535511 C8.25520233 174.16519886 8.25906952 175.31504261 8.26305389 176.49973011 C8.26643768 177.55418324 8.26982147 178.60863636 8.2733078 179.69504261 C8.47336865 182.35153105 8.47336865 182.35153105 9.81920624 184.21701527 C12.44062684 185.86434849 14.45409239 185.76327605 17.53649139 185.77316761 C19.26125702 185.77896839 19.26125702 185.77896839 21.02086639 185.78488636 C22.22227264 185.7732848 23.42367889 185.76168324 24.66149139 185.74973011 C25.86289764 185.76133167 27.06430389 185.77293324 28.30211639 185.78488636 C29.45196014 185.78101917 30.60180389 185.77715199 31.78649139 185.77316761 C32.84094452 185.76978382 33.89539764 185.76640003 34.98180389 185.7629137 C37.63829233 185.56285285 37.63829233 185.56285285 39.50377655 184.21701527 C41.15110977 181.59559467 41.05003733 179.58212911 41.05992889 176.49973011 C41.06379608 175.34988636 41.06766327 174.20004261 41.07164764 173.01535511 C41.06004608 171.81394886 41.04844452 170.61254261 41.03649139 169.37473011 C41.04809296 168.17332386 41.05969452 166.97191761 41.07164764 165.73410511 C41.06778046 164.58426136 41.06391327 163.43441761 41.05992889 162.24973011 C41.0565451 161.19527699 41.05316132 160.14082386 41.04967499 159.05441761 C40.84961413 156.39792917 40.84961413 156.39792917 39.50377655 154.53244495 C36.88235595 152.88511173 34.8688904 152.98618417 31.78649139 152.97629261 C30.06172577 152.97049183 30.06172577 152.97049183 28.30211639 152.96457386 C27.10071014 152.97617542 25.89930389 152.98777699 24.66149139 152.99973011 C23.46008514 152.98812855 22.25867889 152.97652699 21.02086639 152.96457386 C19.87102264 152.96844105 18.72117889 152.97230824 17.53649139 152.97629261 C15.95481171 152.98136829 15.95481171 152.98136829 14.34117889 152.98654652 C11.68469046 153.18660737 11.68469046 153.18660737 9.81920624 154.53244495 Z M56.81700897 155.57126331 C55.59795777 158.52887265 55.27486928 160.56939052 55.26305389 163.75363636 C55.25918671 164.75717152 55.25531952 165.76070667 55.25133514 166.79465199 C55.26293671 167.83170277 55.27453827 168.86875355 55.28649139 169.93723011 C55.27488983 170.97814808 55.26328827 172.01906605 55.25133514 173.09152699 C55.25520233 174.09377308 55.25906952 175.09601917 55.26305389 176.12863636 C55.26643768 177.03943958 55.26982147 177.95024281 55.2733078 178.88864613 C55.75111246 181.94869947 56.3771697 183.27310607 58.66149139 185.37473011 C63.11053118 186.23106837 67.6397348 185.97689464 72.16149139 185.93723011 C74.03514374 185.97300159 74.03514374 185.97300159 75.94664764 186.00949574 C77.14160858 186.00756214 78.33656952 186.00562855 79.56774139 186.00363636 C80.66408905 186.00436146 81.76043671 186.00508656 82.89000702 186.00583363 C85.82722732 185.63075382 85.82722732 185.63075382 87.51964569 183.15793324 C88.70507009 180.26850879 89.03541188 178.31979374 89.02477264 175.21457386 C89.02412811 174.25615589 89.02348358 173.29773792 89.02281952 172.31027699 C89.00670624 171.32092152 88.99059296 170.33156605 88.97399139 169.31223011 C88.97721405 168.31900745 88.98043671 167.3257848 88.98375702 166.30246449 C89.03933064 160.04217233 89.03933064 160.04217233 86.66149139 154.37473011 C82.30134062 152.19465472 76.51318795 153.05586347 71.72399139 152.99973011 C70.51807343 152.9623473 69.31215546 152.92496449 68.06969452 152.88644886 C66.33816132 152.86904652 66.33816132 152.86904652 64.57164764 152.85129261 C63.51082977 152.83147327 62.4500119 152.81165394 61.35704803 152.79123402 C58.48986606 153.12385238 58.48986606 153.12385238 56.81700897 155.57126331 Z M104.81700897 154.51877308 C103.13854343 157.21467316 103.2896714 159.34499443 103.29821014 162.50363636 C103.29885468 163.70310902 103.29949921 164.90258167 103.30016327 166.13840199 C103.31627655 167.39201527 103.33238983 168.64562855 103.34899139 169.93723011 C103.34576874 171.19471058 103.34254608 172.45219105 103.33922577 173.74777699 C102.88617727 180.15006158 102.88617727 180.15006158 105.66149139 185.37473011 C110.12303948 185.83576084 114.61639778 185.69871805 119.09899139 185.68723011 C120.35260468 185.70334339 121.60621796 185.71945667 122.89781952 185.73605824 C124.09729218 185.73670277 125.29676483 185.7373473 126.53258514 185.73801136 C127.63529755 185.74099232 128.73800995 185.74397327 129.87413788 185.74704456 C132.62788411 185.57620161 132.62788411 185.57620161 134.51964569 184.20334339 C136.11286964 181.65186865 136.049849 179.75096484 136.05992889 176.75363636 C136.06379608 175.65342152 136.06766327 174.55320667 136.07164764 173.41965199 C136.06004608 172.27045277 136.04844452 171.12125355 136.03649139 169.93723011 C136.04809296 168.79189808 136.05969452 167.64656605 136.07164764 166.46652699 C136.06584686 164.81427113 136.06584686 164.81427113 136.05992889 163.12863636 C136.0565451 162.12131458 136.05316132 161.11399281 136.04967499 160.07614613 C135.59248911 156.89453499 135.04500305 155.53713678 132.66149139 153.37473011 C129.91272079 152.77421746 129.91272079 152.77421746 126.78649139 152.87863636 C125.63664764 152.87799183 124.48680389 152.8773473 123.30211639 152.87668324 C122.10071014 152.8966637 120.89930389 152.91664417 119.66149139 152.93723011 C118.46008514 152.93014027 117.25867889 152.92305042 116.02086639 152.91574574 C110.16979446 152.66502788 110.16979446 152.66502788 104.81700897 154.51877308 Z M151.81920624 154.53244495 C150.17187302 157.15386555 150.27294546 159.16733111 150.26305389 162.24973011 C150.25918671 163.39957386 150.25531952 164.54941761 150.25133514 165.73410511 C150.26293671 166.93551136 150.27453827 168.13691761 150.28649139 169.37473011 C150.27488983 170.57613636 150.26328827 171.77754261 150.25133514 173.01535511 C150.25520233 174.16519886 150.25906952 175.31504261 150.26305389 176.49973011 C150.26643768 177.55418324 150.26982147 178.60863636 150.2733078 179.69504261 C150.47336865 182.35153105 150.47336865 182.35153105 151.81920624 184.21701527 C154.44062684 185.86434849 156.45409239 185.76327605 159.53649139 185.77316761 C161.26125702 185.77896839 161.26125702 185.77896839 163.02086639 185.78488636 C164.22227264 185.7732848 165.42367889 185.76168324 166.66149139 185.74973011 C167.86289764 185.76133167 169.06430389 185.77293324 170.30211639 185.78488636 C171.45196014 185.78101917 172.60180389 185.77715199 173.78649139 185.77316761 C174.84094452 185.76978382 175.89539764 185.76640003 176.98180389 185.7629137 C179.63829233 185.56285285 179.63829233 185.56285285 181.50377655 184.21701527 C183.15110977 181.59559467 183.05003733 179.58212911 183.05992889 176.49973011 C183.06379608 175.34988636 183.06766327 174.20004261 183.07164764 173.01535511 C183.06004608 171.81394886 183.04844452 170.61254261 183.03649139 169.37473011 C183.04809296 168.17332386 183.05969452 166.97191761 183.07164764 165.73410511 C183.06778046 164.58426136 183.06391327 163.43441761 183.05992889 162.24973011 C183.0565451 161.19527699 183.05316132 160.14082386 183.04967499 159.05441761 C182.84961413 156.39792917 182.84961413 156.39792917 181.50377655 154.53244495 C178.88235595 152.88511173 176.8688904 152.98618417 173.78649139 152.97629261 C172.06172577 152.97049183 172.06172577 152.97049183 170.30211639 152.96457386 C169.10071014 152.97617542 167.89930389 152.98777699 166.66149139 152.99973011 C165.46008514 152.98812855 164.25867889 152.97652699 163.02086639 152.96457386 C161.87102264 152.96844105 160.72117889 152.97230824 159.53649139 152.97629261 C157.95481171 152.98136829 157.95481171 152.98136829 156.34117889 152.98654652 C153.68469046 153.18660737 153.68469046 153.18660737 151.81920624 154.53244495 Z M198.81920624 155.0597887 C197.42502334 157.84756648 197.27403334 159.76284047 197.26305389 162.87473011 C197.25918671 163.92660511 197.25531952 164.97848011 197.25133514 166.06223011 C197.26293671 167.15535511 197.27453827 168.24848011 197.28649139 169.37473011 C197.27488983 170.46785511 197.26328827 171.56098011 197.25133514 172.68723011 C197.25520233 173.73910511 197.25906952 174.79098011 197.26305389 175.87473011 C197.26643768 176.83379261 197.26982147 177.79285511 197.2733078 178.78098011 C197.74109244 181.90660529 198.31510578 183.24692122 200.66149139 185.37473011 C203.52596373 185.95971787 203.52596373 185.95971787 206.79039764 185.83566761 C208.58960663 185.82986683 208.58960663 185.82986683 210.42516327 185.82394886 C211.67877655 185.79945667 212.93238983 185.77496449 214.22399139 185.74973011 C215.48147186 185.74844105 216.73895233 185.74715199 218.03453827 185.74582386 C224.43758511 186.16564822 224.43758511 186.16564822 229.66149139 183.37473011 C230.12324786 178.72515036 229.98548214 174.04456735 229.97399139 169.37473011 C229.99010468 168.06504261 230.00621796 166.75535511 230.02281952 165.40598011 C230.02346405 164.15816761 230.02410858 162.91035511 230.02477264 161.62473011 C230.0277536 160.47488636 230.03073456 159.32504261 230.03380585 158.14035511 C229.91094208 157.22769886 229.78807831 156.31504261 229.66149139 155.37473011 C224.78860746 152.12614082 219.38859325 153.00587507 213.66149139 152.99973011 C212.46008514 152.97523792 211.25867889 152.95074574 210.02086639 152.92551136 C208.29610077 152.91971058 208.29610077 152.91971058 206.53649139 152.91379261 C205.48203827 152.90557484 204.42758514 152.89735706 203.34117889 152.88889027 C200.58697837 153.14262086 200.58697837 153.14262086 198.81920624 155.0597887 Z M10.66149139 199.37473011 C8.39110838 202.78030463 8.40477582 204.03192185 8.39586639 208.03098011 C8.39328827 209.13570667 8.39071014 210.24043324 8.38805389 211.37863636 C8.39578827 212.5323473 8.40352264 213.68605824 8.41149139 214.87473011 C8.40375702 216.02844105 8.39602264 217.18215199 8.38805389 218.37082386 C8.39063202 219.47555042 8.39321014 220.58027699 8.39586639 221.71848011 C8.39812225 222.7310387 8.40037811 223.7435973 8.40270233 224.78683949 C8.48084184 227.61200727 8.48084184 227.61200727 10.66149139 230.37473011 C15.3821156 231.94827151 20.15486879 231.60053868 25.09899139 231.62473011 C26.1489328 231.64535511 27.19887421 231.66598011 28.28063202 231.68723011 C29.29190155 231.69238636 30.30317108 231.69754261 31.34508514 231.70285511 C32.73038422 231.71687366 32.73038422 231.71687366 34.14366913 231.73117542 C37.24053338 231.29275578 38.55073353 230.69203789 40.66149139 228.37473011 C41.24647915 225.51025778 41.24647915 225.51025778 41.12242889 222.24582386 C41.11662811 220.44661488 41.11662811 220.44661488 41.11071014 218.61105824 C41.08621796 217.35744495 41.06172577 216.10383167 41.03649139 214.81223011 C41.03520233 213.55474964 41.03391327 212.29726917 41.03258514 211.00168324 C41.4524095 204.5986364 41.4524095 204.5986364 38.66149139 199.37473011 C34.01191164 198.91297365 29.33132864 199.05073937 24.66149139 199.06223011 C22.69696014 199.03806019 22.69696014 199.03806019 20.69274139 199.01340199 C19.44492889 199.01275745 18.19711639 199.01211292 16.91149139 199.01144886 C15.18672577 199.00697742 15.18672577 199.00697742 13.42711639 199.00241566 C12.51446014 199.12527943 11.60180389 199.2481432 10.66149139 199.37473011 Z M56.8033371 201.08005238 C55.44900782 203.80174169 55.28835057 205.62243039 55.29821014 208.65598011 C55.29885468 209.66273792 55.29949921 210.66949574 55.30016327 211.70676136 C55.31627655 212.75219105 55.33238983 213.79762074 55.34899139 214.87473011 C55.34576874 215.9201598 55.34254608 216.96558949 55.33922577 218.04269886 C55.20283529 224.53357779 55.20283529 224.53357779 57.66149139 230.37473011 C62.36672369 231.94314088 67.10749573 231.68312206 72.03649139 231.74973011 C73.07805389 231.78711292 74.11961639 231.82449574 75.19274139 231.86301136 C79.81143237 231.91616765 82.80147742 231.86887017 86.85680389 229.53879261 C89.5348228 224.84356466 89.31441949 220.68550571 89.16149139 215.37473011 C89.16406952 214.38988636 89.16664764 213.40504261 89.16930389 212.39035511 C89.10229541 205.36609105 89.10229541 205.36609105 85.66149139 199.37473011 C82.8238551 198.62037311 82.8238551 198.62037311 79.56774139 198.74582386 C78.37278046 198.74389027 77.17781952 198.74195667 75.94664764 198.73996449 C74.0729953 198.77573597 74.0729953 198.77573597 72.16149139 198.81223011 C70.91238983 198.80127308 69.66328827 198.79031605 68.37633514 198.77902699 C62.09637248 198.42254544 62.09637248 198.42254544 56.8033371 201.08005238 Z M103.66149139 201.37473011 C103.17392877 205.83531354 103.29108819 210.32805464 103.28649139 214.81223011 C103.26199921 216.06584339 103.23750702 217.31945667 103.21227264 218.61105824 C103.20840546 219.81053089 103.20453827 221.01000355 103.20055389 222.24582386 C103.19233612 223.34853626 103.18411835 224.45124866 103.17565155 225.58737659 C103.41561341 228.44013926 103.41561341 228.44013926 105.36022186 230.23508167 C108.08490011 231.5844131 109.90866213 231.74787265 112.94274139 231.73801136 C113.94949921 231.73736683 114.95625702 231.7367223 115.99352264 231.73605824 C117.56166718 231.71188831 117.56166718 231.71188831 119.16149139 231.68723011 C120.20692108 231.69045277 121.25235077 231.69367542 122.32946014 231.69699574 C128.8016046 231.79267364 128.8016046 231.79267364 134.66149139 229.37473011 C136.77127961 225.15515368 135.84642015 219.57318552 135.84899139 214.93723011 C135.86736053 213.19989613 135.86736053 213.19989613 135.88610077 211.42746449 C135.88803436 210.3182262 135.88996796 209.20898792 135.89196014 208.06613636 C135.89606903 207.04721302 135.90017792 206.02828968 135.90441132 204.97848988 C135.84743301 202.13904774 135.84743301 202.13904774 133.66149139 199.37473011 C130.78542114 198.92372956 130.78542114 198.92372956 127.41149139 199.01144886 C126.16367889 199.01209339 124.91586639 199.01273792 123.63024139 199.01340199 C122.32055389 199.02951527 121.01086639 199.04562855 119.66149139 199.06223011 C118.35180389 199.05900745 117.04211639 199.0557848 115.69274139 199.05246449 C109.08060079 198.56949854 109.08060079 198.56949854 103.66149139 201.37473011 Z M150.66149139 201.37473011 C150.17392877 205.83531354 150.29108819 210.32805464 150.28649139 214.81223011 C150.26199921 216.06584339 150.23750702 217.31945667 150.21227264 218.61105824 C150.20840546 219.81053089 150.20453827 221.01000355 150.20055389 222.24582386 C150.19233612 223.34853626 150.18411835 224.45124866 150.17565155 225.58737659 C150.41650133 228.43727166 150.41650133 228.43727166 152.34654999 230.23288441 C155.13219825 231.60690644 157.05989251 231.76222447 160.16149139 231.77316761 C161.73930389 231.77896839 161.73930389 231.77896839 163.34899139 231.78488636 C164.44211639 231.7732848 165.53524139 231.76168324 166.66149139 231.74973011 C167.75461639 231.76133167 168.84774139 231.77293324 169.97399139 231.78488636 C171.02586639 231.78101917 172.07774139 231.77715199 173.16149139 231.77316761 C174.12055389 231.76978382 175.07961639 231.76640003 176.06774139 231.7629137 C179.19336658 231.29512906 180.5336825 230.72111572 182.66149139 228.37473011 C183.24647915 225.51025778 183.24647915 225.51025778 183.12242889 222.24582386 C183.11662811 220.44661488 183.11662811 220.44661488 183.11071014 218.61105824 C183.08621796 217.35744495 183.06172577 216.10383167 183.03649139 214.81223011 C183.03520233 213.55474964 183.03391327 212.29726917 183.03258514 211.00168324 C183.4524095 204.5986364 183.4524095 204.5986364 180.66149139 199.37473011 C177.78061216 199.06274472 177.78061216 199.06274472 174.41149139 199.10910511 C173.16367889 199.10652699 171.91586639 199.10394886 170.63024139 199.10129261 C169.32055389 199.10902699 168.01086639 199.11676136 166.66149139 199.12473011 C164.69696014 199.11312855 164.69696014 199.11312855 162.69274139 199.10129261 C160.82102264 199.1051598 160.82102264 199.1051598 158.91149139 199.10910511 C157.76164764 199.11136097 156.61180389 199.11361683 155.42711639 199.11594105 C152.51949308 199.09129335 152.51949308 199.09129335 150.66149139 201.37473011 Z M198.80113983 200.54391956 C197.20405028 203.10959534 197.28934742 205.02052703 197.29821014 208.03098011 C197.29885468 209.13570667 197.29949921 210.24043324 197.30016327 211.37863636 C197.31627655 212.5323473 197.33238983 213.68605824 197.34899139 214.87473011 C197.34576874 216.02844105 197.34254608 217.18215199 197.33922577 218.37082386 C197.15760087 224.73760977 197.15760087 224.73760977 199.66149139 230.37473011 C204.3821156 231.94827151 209.15486879 231.60053868 214.09899139 231.62473011 C215.1489328 231.64535511 216.19887421 231.66598011 217.28063202 231.68723011 C218.29190155 231.69238636 219.30317108 231.69754261 220.34508514 231.70285511 C221.73038422 231.71687366 221.73038422 231.71687366 223.14366913 231.73117542 C226.24053338 231.29275578 227.55073353 230.69203789 229.66149139 228.37473011 C230.24647915 225.51025778 230.24647915 225.51025778 230.12242889 222.24582386 C230.11662811 220.44661488 230.11662811 220.44661488 230.11071014 218.61105824 C230.08621796 217.35744495 230.06172577 216.10383167 230.03649139 214.81223011 C230.03520233 213.55474964 230.03391327 212.29726917 230.03258514 211.00168324 C230.4524095 204.5986364 230.4524095 204.5986364 227.66149139 199.37473011 C223.19994331 198.91369938 218.70658501 199.05074217 214.22399139 199.06223011 C212.97037811 199.04611683 211.71676483 199.03000355 210.42516327 199.01340199 C209.22569061 199.01275745 208.02621796 199.01211292 206.79039764 199.01144886 C205.68768524 199.0084679 204.58497284 199.00548695 203.44884491 199.00241566 C200.69532919 199.17382089 200.69532919 199.17382089 198.80113983 200.54391956 Z M9.81920624 245.53244495 C8.17187302 248.15386555 8.27294546 250.16733111 8.26305389 253.24973011 C8.25918671 254.39957386 8.25531952 255.54941761 8.25133514 256.73410511 C8.26293671 257.93551136 8.27453827 259.13691761 8.28649139 260.37473011 C8.27488983 261.57613636 8.26328827 262.77754261 8.25133514 264.01535511 C8.25520233 265.16519886 8.25906952 266.31504261 8.26305389 267.49973011 C8.26643768 268.55418324 8.26982147 269.60863636 8.2733078 270.69504261 C8.47336865 273.35153105 8.47336865 273.35153105 9.81920624 275.21701527 C12.44062684 276.86434849 14.45409239 276.76327605 17.53649139 276.77316761 C19.26125702 276.77896839 19.26125702 276.77896839 21.02086639 276.78488636 C22.22227264 276.7732848 23.42367889 276.76168324 24.66149139 276.74973011 C25.86289764 276.76133167 27.06430389 276.77293324 28.30211639 276.78488636 C29.45196014 276.78101917 30.60180389 276.77715199 31.78649139 276.77316761 C32.84094452 276.76978382 33.89539764 276.76640003 34.98180389 276.7629137 C37.63829233 276.56285285 37.63829233 276.56285285 39.50377655 275.21701527 C41.15110977 272.59559467 41.05003733 270.58212911 41.05992889 267.49973011 C41.06379608 266.34988636 41.06766327 265.20004261 41.07164764 264.01535511 C41.06004608 262.81394886 41.04844452 261.61254261 41.03649139 260.37473011 C41.04809296 259.17332386 41.05969452 257.97191761 41.07164764 256.73410511 C41.06778046 255.58426136 41.06391327 254.43441761 41.05992889 253.24973011 C41.0565451 252.19527699 41.05316132 251.14082386 41.04967499 250.05441761 C40.84961413 247.39792917 40.84961413 247.39792917 39.50377655 245.53244495 C36.88235595 243.88511173 34.8688904 243.98618417 31.78649139 243.97629261 C30.06172577 243.97049183 30.06172577 243.97049183 28.30211639 243.96457386 C27.10071014 243.97617542 25.89930389 243.98777699 24.66149139 243.99973011 C23.46008514 243.98812855 22.25867889 243.97652699 21.02086639 243.96457386 C19.87102264 243.96844105 18.72117889 243.97230824 17.53649139 243.97629261 C15.95481171 243.98136829 15.95481171 243.98136829 14.34117889 243.98654652 C11.68469046 244.18660737 11.68469046 244.18660737 9.81920624 245.53244495 Z M56.80553436 246.58005238 C55.5975446 249.53093987 55.27483334 251.57907586 55.26305389 254.75363636 C55.25918671 255.75717152 55.25531952 256.76070667 55.25133514 257.79465199 C55.26293671 258.83170277 55.27453827 259.86875355 55.28649139 260.93723011 C55.27488983 261.97814808 55.26328827 263.01906605 55.25133514 264.09152699 C55.25520233 265.09377308 55.25906952 266.09601917 55.26305389 267.12863636 C55.26643768 268.03943958 55.26982147 268.95024281 55.2733078 269.88864613 C55.75111246 272.94869947 56.3771697 274.27310607 58.66149139 276.37473011 C63.11053118 277.23106837 67.6397348 276.97689464 72.16149139 276.93723011 C74.03514374 276.97300159 74.03514374 276.97300159 75.94664764 277.00949574 C77.14160858 277.00756214 78.33656952 277.00562855 79.56774139 277.00363636 C80.66408905 277.00436146 81.76043671 277.00508656 82.89000702 277.00583363 C85.82766053 276.6310691 85.82766053 276.6310691 87.51744843 274.15573597 C88.69750869 271.28717719 89.04784603 269.33373791 89.05992889 266.24973011 C89.06379608 265.29582386 89.06766327 264.34191761 89.07164764 263.35910511 C89.06004608 262.37426136 89.04844452 261.38941761 89.03649139 260.37473011 C89.04809296 259.38988636 89.05969452 258.40504261 89.07164764 257.39035511 C89.06584686 255.95949574 89.06584686 255.95949574 89.05992889 254.49973011 C89.0565451 253.63605824 89.05316132 252.77238636 89.04967499 251.88254261 C88.55278664 248.67245636 87.74959729 246.87375503 85.66149139 244.37473011 C82.82511254 243.60432216 82.82511254 243.60432216 79.56774139 243.71066761 C78.37278046 243.7042223 77.17781952 243.69777699 75.94664764 243.69113636 C74.0729953 243.72014027 74.0729953 243.72014027 72.16149139 243.74973011 C70.91238983 243.73039417 69.66328827 243.71105824 68.37633514 243.69113636 C67.18137421 243.69758167 65.98641327 243.70402699 64.75524139 243.71066761 C63.65889374 243.71630726 62.56254608 243.72194691 61.43297577 243.72775745 C58.49909823 244.1210205 58.49909823 244.1210205 56.80553436 246.58005238 Z M103.66149139 246.37473011 C103.21049084 249.25080036 103.21049084 249.25080036 103.29821014 252.62473011 C103.29885468 253.87254261 103.29949921 255.12035511 103.30016327 256.40598011 C103.31627655 257.71566761 103.33238983 259.02535511 103.34899139 260.37473011 C103.34576874 261.68441761 103.34254608 262.99410511 103.33922577 264.34348011 C102.85625982 270.95562071 102.85625982 270.95562071 105.66149139 276.37473011 C110.12207482 276.86229273 114.61481592 276.74513331 119.09899139 276.74973011 C120.35260468 276.7742223 121.60621796 276.79871449 122.89781952 276.82394886 C124.09729218 276.82781605 125.29676483 276.83168324 126.53258514 276.83566761 C127.63529755 276.84388538 128.73800995 276.85210316 129.87413788 276.86056995 C132.72403294 276.61972018 132.72403294 276.61972018 134.51964569 274.68967152 C135.89366772 271.90402326 136.04898575 269.97632899 136.05992889 266.87473011 C136.06379608 265.82285511 136.06766327 264.77098011 136.07164764 263.68723011 C136.06004608 262.59410511 136.04844452 261.50098011 136.03649139 260.37473011 C136.04809296 259.28160511 136.05969452 258.18848011 136.07164764 257.06223011 C136.06584686 255.48441761 136.06584686 255.48441761 136.05992889 253.87473011 C136.0565451 252.91566761 136.05316132 251.95660511 136.04967499 250.96848011 C135.583175 247.8514387 134.99094798 246.50538335 132.66149139 244.37473011 C129.91166058 243.79034477 129.91166058 243.79034477 126.78649139 243.91379261 C125.63664764 243.9176598 124.48680389 243.92152699 123.30211639 243.92551136 C121.50000702 243.96224964 121.50000702 243.96224964 119.66149139 243.99973011 C118.46008514 244.00101917 117.25867889 244.00230824 116.02086639 244.00363636 C109.46817472 243.83333647 109.46817472 243.83333647 103.66149139 246.37473011 Z M151.81920624 245.53244495 C150.17187302 248.15386555 150.27294546 250.16733111 150.26305389 253.24973011 C150.25918671 254.39957386 150.25531952 255.54941761 150.25133514 256.73410511 C150.26293671 257.93551136 150.27453827 259.13691761 150.28649139 260.37473011 C150.27488983 261.57613636 150.26328827 262.77754261 150.25133514 264.01535511 C150.25520233 265.16519886 150.25906952 266.31504261 150.26305389 267.49973011 C150.26643768 268.55418324 150.26982147 269.60863636 150.2733078 270.69504261 C150.47336865 273.35153105 150.47336865 273.35153105 151.81920624 275.21701527 C154.44062684 276.86434849 156.45409239 276.76327605 159.53649139 276.77316761 C161.26125702 276.77896839 161.26125702 276.77896839 163.02086639 276.78488636 C164.22227264 276.7732848 165.42367889 276.76168324 166.66149139 276.74973011 C167.86289764 276.76133167 169.06430389 276.77293324 170.30211639 276.78488636 C171.45196014 276.78101917 172.60180389 276.77715199 173.78649139 276.77316761 C174.84094452 276.76978382 175.89539764 276.76640003 176.98180389 276.7629137 C179.63829233 276.56285285 179.63829233 276.56285285 181.50377655 275.21701527 C183.15110977 272.59559467 183.05003733 270.58212911 183.05992889 267.49973011 C183.06379608 266.34988636 183.06766327 265.20004261 183.07164764 264.01535511 C183.06004608 262.81394886 183.04844452 261.61254261 183.03649139 260.37473011 C183.04809296 259.17332386 183.05969452 257.97191761 183.07164764 256.73410511 C183.06778046 255.58426136 183.06391327 254.43441761 183.05992889 253.24973011 C183.0565451 252.19527699 183.05316132 251.14082386 183.04967499 250.05441761 C182.84961413 247.39792917 182.84961413 247.39792917 181.50377655 245.53244495 C178.88235595 243.88511173 176.8688904 243.98618417 173.78649139 243.97629261 C172.06172577 243.97049183 172.06172577 243.97049183 170.30211639 243.96457386 C169.10071014 243.97617542 167.89930389 243.98777699 166.66149139 243.99973011 C165.46008514 243.98812855 164.25867889 243.97652699 163.02086639 243.96457386 C161.87102264 243.96844105 160.72117889 243.97230824 159.53649139 243.97629261 C157.95481171 243.98136829 157.95481171 243.98136829 156.34117889 243.98654652 C153.68469046 244.18660737 153.68469046 244.18660737 151.81920624 245.53244495 Z M198.81920624 246.0597887 C197.42502334 248.84756648 197.27403334 250.76284047 197.26305389 253.87473011 C197.25918671 254.92660511 197.25531952 255.97848011 197.25133514 257.06223011 C197.26293671 258.15535511 197.27453827 259.24848011 197.28649139 260.37473011 C197.27488983 261.46785511 197.26328827 262.56098011 197.25133514 263.68723011 C197.25520233 264.73910511 197.25906952 265.79098011 197.26305389 266.87473011 C197.26643768 267.83379261 197.26982147 268.79285511 197.2733078 269.78098011 C197.74109244 272.90660529 198.31510578 274.24692122 200.66149139 276.37473011 C203.52596373 276.95971787 203.52596373 276.95971787 206.79039764 276.83566761 C208.58960663 276.82986683 208.58960663 276.82986683 210.42516327 276.82394886 C211.67877655 276.79945667 212.93238983 276.77496449 214.22399139 276.74973011 C215.48147186 276.74844105 216.73895233 276.74715199 218.03453827 276.74582386 C224.43758511 277.16564822 224.43758511 277.16564822 229.66149139 274.37473011 C230.12324786 269.72515036 229.98548214 265.04456735 229.97399139 260.37473011 C229.99010468 259.06504261 230.00621796 257.75535511 230.02281952 256.40598011 C230.02346405 255.15816761 230.02410858 253.91035511 230.02477264 252.62473011 C230.0277536 251.47488636 230.03073456 250.32504261 230.03380585 249.14035511 C229.91094208 248.22769886 229.78807831 247.31504261 229.66149139 246.37473011 C224.78860746 243.12614082 219.38859325 244.00587507 213.66149139 243.99973011 C212.46008514 243.97523792 211.25867889 243.95074574 210.02086639 243.92551136 C208.29610077 243.91971058 208.29610077 243.91971058 206.53649139 243.91379261 C205.48203827 243.90557484 204.42758514 243.89735706 203.34117889 243.88889027 C200.58697837 244.14262086 200.58697837 244.14262086 198.81920624 246.0597887 Z M9.66149139 291.37473011 C7.55170318 295.59430654 8.47656264 301.1762747 8.47399139 305.81223011 C8.4617453 306.97045277 8.44949921 308.12867542 8.43688202 309.32199574 C8.43494843 310.43123402 8.43301483 311.5404723 8.43102264 312.68332386 C8.42691376 313.7022472 8.42280487 314.72117054 8.41857147 315.77097034 C8.47554978 318.61041248 8.47554978 318.61041248 10.66149139 321.37473011 C15.3821156 322.94827151 20.15486879 322.60053868 25.09899139 322.62473011 C26.1489328 322.64535511 27.19887421 322.66598011 28.28063202 322.68723011 C29.29190155 322.69238636 30.30317108 322.69754261 31.34508514 322.70285511 C32.73038422 322.71687366 32.73038422 322.71687366 34.14366913 322.73117542 C37.23982745 322.29285571 38.54594624 321.68557502 40.66149139 319.37473011 C41.51782965 314.92569033 41.26365593 310.3964867 41.22399139 305.87473011 C41.24783905 304.62562855 41.27168671 303.37652699 41.29625702 302.08957386 C41.29432343 300.89461292 41.29238983 299.69965199 41.29039764 298.46848011 C41.29148529 296.82395863 41.29148529 296.82395863 41.29259491 295.14621449 C40.9175151 292.20899418 40.9175151 292.20899418 38.44469452 290.51657581 C35.55527007 289.33115142 33.60655502 289.00080962 30.50133514 289.01144886 C29.54291718 289.01209339 28.58449921 289.01273792 27.59703827 289.01340199 C26.6076828 289.02951527 25.61832733 289.04562855 24.59899139 289.06223011 C23.60576874 289.05900745 22.61254608 289.0557848 21.58922577 289.05246449 C15.32893361 288.99689087 15.32893361 288.99689087 9.66149139 291.37473011 Z M57.49352264 291.17551136 C54.71689815 296.02424368 55.05015458 300.45284912 55.22399139 305.93723011 C55.22979218 306.97814808 55.23559296 308.01906605 55.24156952 309.09152699 C55.18836679 315.55688871 55.18836679 315.55688871 57.66149139 321.37473011 C62.36672369 322.94314088 67.10749573 322.68312206 72.03649139 322.74973011 C73.07805389 322.78711292 74.11961639 322.82449574 75.19274139 322.86301136 C79.81143237 322.91616765 82.80147742 322.86887017 86.85680389 320.53879261 C89.5348228 315.84356466 89.31441949 311.68550571 89.16149139 306.37473011 C89.16406952 305.38988636 89.16664764 304.40504261 89.16930389 303.39035511 C89.12137023 296.34471616 89.12137023 296.34471616 85.66149139 290.37473011 C81.09821461 288.85363785 76.56746634 289.06741444 71.78649139 288.99973011 C70.79262421 288.9623473 69.79875702 288.92496449 68.77477264 288.88644886 C64.28917567 288.83240552 61.44256807 288.93073955 57.49352264 291.17551136 Z M103.66149139 292.37473011 C102.9071344 295.2123664 102.9071344 295.2123664 103.03258514 298.46848011 C103.03065155 299.66344105 103.02871796 300.85840199 103.02672577 302.08957386 C103.05057343 303.33867542 103.07442108 304.58777699 103.09899139 305.87473011 C103.08803436 307.12383167 103.07707733 308.37293324 103.06578827 309.65988636 C102.70930673 315.93984902 102.70930673 315.93984902 105.36681366 321.23288441 C108.08850297 322.58721369 109.90919168 322.74787093 112.94274139 322.73801136 C113.94949921 322.73736683 114.95625702 322.7367223 115.99352264 322.73605824 C117.56166718 322.71188831 117.56166718 322.71188831 119.16149139 322.68723011 C120.20692108 322.69045277 121.25235077 322.69367542 122.32946014 322.69699574 C128.8016046 322.79267364 128.8016046 322.79267364 134.66149139 320.37473011 C136.77127961 316.15515368 135.84642015 310.57318552 135.84899139 305.93723011 C135.86736053 304.19989613 135.86736053 304.19989613 135.88610077 302.42746449 C135.88803436 301.3182262 135.88996796 300.20898792 135.89196014 299.06613636 C135.89606903 298.04721302 135.90017792 297.02828968 135.90441132 295.97848988 C135.84743301 293.13904774 135.84743301 293.13904774 133.66149139 290.37473011 C129.09868839 288.85379577 124.56604571 289.14933528 119.78649139 289.12473011 C118.79262421 289.10410511 117.79875702 289.08348011 116.77477264 289.06223011 C115.33037811 289.05449574 115.33037811 289.05449574 113.85680389 289.04660511 C112.54220184 289.03258656 112.54220184 289.03258656 111.20104218 289.0182848 C107.95502254 289.4738884 106.17700907 290.26159543 103.66149139 292.37473011 Z M150.66149139 292.37473011 C149.89108344 295.21110897 149.89108344 295.21110897 149.99742889 298.46848011 C149.99098358 299.66344105 149.98453827 300.85840199 149.97789764 302.08957386 C149.99723358 303.33867542 150.01656952 304.58777699 150.03649139 305.87473011 C150.01715546 307.12383167 149.99781952 308.37293324 149.97789764 309.65988636 C149.98434296 310.8548473 149.99078827 312.04980824 149.99742889 313.28098011 C150.00306854 314.37732777 150.00870819 315.47367542 150.01451874 316.60324574 C150.40778179 319.53712328 150.40778179 319.53712328 152.86681366 321.23068714 C155.81770116 322.4386769 157.86583714 322.76138816 161.04039764 322.77316761 C162.54570038 322.77896839 162.54570038 322.77896839 164.08141327 322.78488636 C165.11846405 322.7732848 166.15551483 322.76168324 167.22399139 322.74973011 C168.78536835 322.76713245 168.78536835 322.76713245 170.37828827 322.78488636 C171.88165741 322.77908558 171.88165741 322.77908558 173.41539764 322.77316761 C174.78160248 322.76809193 174.78160248 322.76809193 176.17540741 322.7629137 C179.23546075 322.28510905 180.55986735 321.65905181 182.66149139 319.37473011 C183.51782965 314.92569033 183.26365593 310.3964867 183.22399139 305.87473011 C183.24783905 304.62562855 183.27168671 303.37652699 183.29625702 302.08957386 C183.29432343 300.89461292 183.29238983 299.69965199 183.29039764 298.46848011 C183.29148529 296.82395863 183.29148529 296.82395863 183.29259491 295.14621449 C182.91783039 292.20856098 182.91783039 292.20856098 180.44249725 290.51877308 C177.57393847 289.33871282 175.62049919 288.98837548 172.53649139 288.97629261 C171.58258514 288.97242542 170.62867889 288.96855824 169.64586639 288.96457386 C168.16860077 288.9819762 168.16860077 288.9819762 166.66149139 288.99973011 C165.67664764 288.98812855 164.69180389 288.97652699 163.67711639 288.96457386 C162.24625702 288.97037464 162.24625702 288.97037464 160.78649139 288.97629261 C159.92281952 288.9796764 159.05914764 288.98306019 158.16930389 288.98654652 C154.95921764 289.48343487 153.16051631 290.28662422 150.66149139 292.37473011 Z M198.66149139 291.37473011 C196.55170318 295.59430654 197.47656264 301.1762747 197.47399139 305.81223011 C197.4617453 306.97045277 197.44949921 308.12867542 197.43688202 309.32199574 C197.43494843 310.43123402 197.43301483 311.5404723 197.43102264 312.68332386 C197.42691376 313.7022472 197.42280487 314.72117054 197.41857147 315.77097034 C197.47554978 318.61041248 197.47554978 318.61041248 199.66149139 321.37473011 C204.3821156 322.94827151 209.15486879 322.60053868 214.09899139 322.62473011 C215.1489328 322.64535511 216.19887421 322.66598011 217.28063202 322.68723011 C218.29190155 322.69238636 219.30317108 322.69754261 220.34508514 322.70285511 C221.73038422 322.71687366 221.73038422 322.71687366 223.14366913 322.73117542 C226.23982745 322.29285571 227.54594624 321.68557502 229.66149139 319.37473011 C230.51782965 314.92569033 230.26365593 310.3964867 230.22399139 305.87473011 C230.24783905 304.62562855 230.27168671 303.37652699 230.29625702 302.08957386 C230.29432343 300.89461292 230.29238983 299.69965199 230.29039764 298.46848011 C230.29148529 296.82395863 230.29148529 296.82395863 230.29259491 295.14621449 C229.9175151 292.20899418 229.9175151 292.20899418 227.44469452 290.51657581 C224.55527007 289.33115142 222.60655502 289.00080962 219.50133514 289.01144886 C218.54291718 289.01209339 217.58449921 289.01273792 216.59703827 289.01340199 C215.6076828 289.02951527 214.61832733 289.04562855 213.59899139 289.06223011 C212.60576874 289.05900745 211.61254608 289.0557848 210.58922577 289.05246449 C204.32893361 288.99689087 204.32893361 288.99689087 198.66149139 291.37473011 Z M9.81920624 336.53244495 C8.17187302 339.15386555 8.27294546 341.16733111 8.26305389 344.24973011 C8.25918671 345.39957386 8.25531952 346.54941761 8.25133514 347.73410511 C8.26293671 348.93551136 8.27453827 350.13691761 8.28649139 351.37473011 C8.27488983 352.57613636 8.26328827 353.77754261 8.25133514 355.01535511 C8.25520233 356.16519886 8.25906952 357.31504261 8.26305389 358.49973011 C8.26643768 359.55418324 8.26982147 360.60863636 8.2733078 361.69504261 C8.47336865 364.35153105 8.47336865 364.35153105 9.81920624 366.21701527 C12.44062684 367.86434849 14.45409239 367.76327605 17.53649139 367.77316761 C19.26125702 367.77896839 19.26125702 367.77896839 21.02086639 367.78488636 C22.22227264 367.7732848 23.42367889 367.76168324 24.66149139 367.74973011 C25.86289764 367.76133167 27.06430389 367.77293324 28.30211639 367.78488636 C29.45196014 367.78101917 30.60180389 367.77715199 31.78649139 367.77316761 C32.84094452 367.76978382 33.89539764 367.76640003 34.98180389 367.7629137 C37.63829233 367.56285285 37.63829233 367.56285285 39.50377655 366.21701527 C41.15110977 363.59559467 41.05003733 361.58212911 41.05992889 358.49973011 C41.06379608 357.34988636 41.06766327 356.20004261 41.07164764 355.01535511 C41.06004608 353.81394886 41.04844452 352.61254261 41.03649139 351.37473011 C41.04809296 350.17332386 41.05969452 348.97191761 41.07164764 347.73410511 C41.06778046 346.58426136 41.06391327 345.43441761 41.05992889 344.24973011 C41.0565451 343.19527699 41.05316132 342.14082386 41.04967499 341.05441761 C40.84961413 338.39792917 40.84961413 338.39792917 39.50377655 336.53244495 C36.88235595 334.88511173 34.8688904 334.98618417 31.78649139 334.97629261 C30.06172577 334.97049183 30.06172577 334.97049183 28.30211639 334.96457386 C27.10071014 334.97617542 25.89930389 334.98777699 24.66149139 334.99973011 C23.46008514 334.98812855 22.25867889 334.97652699 21.02086639 334.96457386 C19.87102264 334.96844105 18.72117889 334.97230824 17.53649139 334.97629261 C15.95481171 334.98136829 15.95481171 334.98136829 14.34117889 334.98654652 C11.68469046 335.18660737 11.68469046 335.18660737 9.81920624 336.53244495 Z M56.80553436 337.58005238 C55.5975446 340.53093987 55.27483334 342.57907586 55.26305389 345.75363636 C55.25918671 346.75717152 55.25531952 347.76070667 55.25133514 348.79465199 C55.26293671 349.83170277 55.27453827 350.86875355 55.28649139 351.93723011 C55.27488983 352.97814808 55.26328827 354.01906605 55.25133514 355.09152699 C55.25520233 356.09377308 55.25906952 357.09601917 55.26305389 358.12863636 C55.26643768 359.03943958 55.26982147 359.95024281 55.2733078 360.88864613 C55.75111246 363.94869947 56.3771697 365.27310607 58.66149139 367.37473011 C63.11053118 368.23106837 67.6397348 367.97689464 72.16149139 367.93723011 C74.03514374 367.97300159 74.03514374 367.97300159 75.94664764 368.00949574 C77.14160858 368.00756214 78.33656952 368.00562855 79.56774139 368.00363636 C80.66408905 368.00436146 81.76043671 368.00508656 82.89000702 368.00583363 C85.82766053 367.6310691 85.82766053 367.6310691 87.51744843 365.15573597 C88.69750869 362.28717719 89.04784603 360.33373791 89.05992889 357.24973011 C89.06379608 356.29582386 89.06766327 355.34191761 89.07164764 354.35910511 C89.06004608 353.37426136 89.04844452 352.38941761 89.03649139 351.37473011 C89.04809296 350.38988636 89.05969452 349.40504261 89.07164764 348.39035511 C89.06584686 346.95949574 89.06584686 346.95949574 89.05992889 345.49973011 C89.0565451 344.63605824 89.05316132 343.77238636 89.04967499 342.88254261 C88.55278664 339.67245636 87.74959729 337.87375503 85.66149139 335.37473011 C82.82511254 334.60432216 82.82511254 334.60432216 79.56774139 334.71066761 C78.37278046 334.7042223 77.17781952 334.69777699 75.94664764 334.69113636 C74.0729953 334.72014027 74.0729953 334.72014027 72.16149139 334.74973011 C70.91238983 334.73039417 69.66328827 334.71105824 68.37633514 334.69113636 C67.18137421 334.69758167 65.98641327 334.70402699 64.75524139 334.71066761 C63.65889374 334.71630726 62.56254608 334.72194691 61.43297577 334.72775745 C58.49909823 335.1210205 58.49909823 335.1210205 56.80553436 337.58005238 Z M103.66149139 337.37473011 C103.19395721 340.24999566 103.19395721 340.24999566 103.26305389 343.62473011 C103.25918671 344.87254261 103.25531952 346.12035511 103.25133514 347.40598011 C103.26293671 348.71566761 103.27453827 350.02535511 103.28649139 351.37473011 C103.27488983 352.68441761 103.26328827 353.99410511 103.25133514 355.34348011 C103.25520233 356.59129261 103.25906952 357.83910511 103.26305389 359.12473011 C103.26643768 360.27457386 103.26982147 361.42441761 103.2733078 362.60910511 C103.46545868 363.97808949 103.46545868 363.97808949 103.66149139 365.37473011 C108.53437533 368.6233194 113.93438954 367.74358515 119.66149139 367.74973011 C121.46360077 367.78646839 121.46360077 367.78646839 123.30211639 367.82394886 C125.02688202 367.82974964 125.02688202 367.82974964 126.78649139 367.83566761 C127.84094452 367.84388538 128.89539764 367.85210316 129.98180389 367.86056995 C132.73600442 367.60683937 132.73600442 367.60683937 134.50377655 365.68967152 C135.89795944 362.90189374 136.04894944 360.98661975 136.05992889 357.87473011 C136.06379608 356.82285511 136.06766327 355.77098011 136.07164764 354.68723011 C136.06004608 353.59410511 136.04844452 352.50098011 136.03649139 351.37473011 C136.04809296 350.28160511 136.05969452 349.18848011 136.07164764 348.06223011 C136.06584686 346.48441761 136.06584686 346.48441761 136.05992889 344.87473011 C136.0565451 343.91566761 136.05316132 342.95660511 136.04967499 341.96848011 C135.583175 338.8514387 134.99094798 337.50538335 132.66149139 335.37473011 C129.91166058 334.79034477 129.91166058 334.79034477 126.78649139 334.91379261 C125.63664764 334.9176598 124.48680389 334.92152699 123.30211639 334.92551136 C121.50000702 334.96224964 121.50000702 334.96224964 119.66149139 334.99973011 C118.46008514 335.00101917 117.25867889 335.00230824 116.02086639 335.00363636 C109.46817472 334.83333647 109.46817472 334.83333647 103.66149139 337.37473011 Z M151.81920624 336.53244495 C150.17187302 339.15386555 150.27294546 341.16733111 150.26305389 344.24973011 C150.25918671 345.39957386 150.25531952 346.54941761 150.25133514 347.73410511 C150.26293671 348.93551136 150.27453827 350.13691761 150.28649139 351.37473011 C150.27488983 352.57613636 150.26328827 353.77754261 150.25133514 355.01535511 C150.25520233 356.16519886 150.25906952 357.31504261 150.26305389 358.49973011 C150.26643768 359.55418324 150.26982147 360.60863636 150.2733078 361.69504261 C150.47336865 364.35153105 150.47336865 364.35153105 151.81920624 366.21701527 C154.44062684 367.86434849 156.45409239 367.76327605 159.53649139 367.77316761 C161.26125702 367.77896839 161.26125702 367.77896839 163.02086639 367.78488636 C164.22227264 367.7732848 165.42367889 367.76168324 166.66149139 367.74973011 C167.86289764 367.76133167 169.06430389 367.77293324 170.30211639 367.78488636 C171.45196014 367.78101917 172.60180389 367.77715199 173.78649139 367.77316761 C174.84094452 367.76978382 175.89539764 367.76640003 176.98180389 367.7629137 C179.63829233 367.56285285 179.63829233 367.56285285 181.50377655 366.21701527 C183.15110977 363.59559467 183.05003733 361.58212911 183.05992889 358.49973011 C183.06379608 357.34988636 183.06766327 356.20004261 183.07164764 355.01535511 C183.06004608 353.81394886 183.04844452 352.61254261 183.03649139 351.37473011 C183.04809296 350.17332386 183.05969452 348.97191761 183.07164764 347.73410511 C183.06778046 346.58426136 183.06391327 345.43441761 183.05992889 344.24973011 C183.0565451 343.19527699 183.05316132 342.14082386 183.04967499 341.05441761 C182.84961413 338.39792917 182.84961413 338.39792917 181.50377655 336.53244495 C178.88235595 334.88511173 176.8688904 334.98618417 173.78649139 334.97629261 C172.06172577 334.97049183 172.06172577 334.97049183 170.30211639 334.96457386 C169.10071014 334.97617542 167.89930389 334.98777699 166.66149139 334.99973011 C165.46008514 334.98812855 164.25867889 334.97652699 163.02086639 334.96457386 C161.87102264 334.96844105 160.72117889 334.97230824 159.53649139 334.97629261 C157.95481171 334.98136829 157.95481171 334.98136829 156.34117889 334.98654652 C153.68469046 335.18660737 153.68469046 335.18660737 151.81920624 336.53244495 Z M198.81920624 337.0597887 C197.42502334 339.84756648 197.27403334 341.76284047 197.26305389 344.87473011 C197.25918671 345.92660511 197.25531952 346.97848011 197.25133514 348.06223011 C197.26293671 349.15535511 197.27453827 350.24848011 197.28649139 351.37473011 C197.27488983 352.46785511 197.26328827 353.56098011 197.25133514 354.68723011 C197.25520233 355.73910511 197.25906952 356.79098011 197.26305389 357.87473011 C197.26643768 358.83379261 197.26982147 359.79285511 197.2733078 360.78098011 C197.74109244 363.90660529 198.31510578 365.24692122 200.66149139 367.37473011 C203.52596373 367.95971787 203.52596373 367.95971787 206.79039764 367.83566761 C208.58960663 367.82986683 208.58960663 367.82986683 210.42516327 367.82394886 C211.67877655 367.79945667 212.93238983 367.77496449 214.22399139 367.74973011 C215.48147186 367.74844105 216.73895233 367.74715199 218.03453827 367.74582386 C224.43758511 368.16564822 224.43758511 368.16564822 229.66149139 365.37473011 C230.12324786 360.72515036 229.98548214 356.04456735 229.97399139 351.37473011 C229.99010468 350.06504261 230.00621796 348.75535511 230.02281952 347.40598011 C230.02346405 346.15816761 230.02410858 344.91035511 230.02477264 343.62473011 C230.0277536 342.47488636 230.03073456 341.32504261 230.03380585 340.14035511 C229.91094208 339.22769886 229.78807831 338.31504261 229.66149139 337.37473011 C224.78860746 334.12614082 219.38859325 335.00587507 213.66149139 334.99973011 C212.46008514 334.97523792 211.25867889 334.95074574 210.02086639 334.92551136 C208.29610077 334.91971058 208.29610077 334.91971058 206.53649139 334.91379261 C205.48203827 334.90557484 204.42758514 334.89735706 203.34117889 334.88889027 C200.58697837 335.14262086 200.58697837 335.14262086 198.81920624 337.0597887 Z M9.66149139 382.37473011 C7.55170318 386.59430654 8.47656264 392.1762747 8.47399139 396.81223011 C8.4617453 397.97045277 8.44949921 399.12867542 8.43688202 400.32199574 C8.43494843 401.43123402 8.43301483 402.5404723 8.43102264 403.68332386 C8.42691376 404.7022472 8.42280487 405.72117054 8.41857147 406.77097034 C8.47554978 409.61041248 8.47554978 409.61041248 10.66149139 412.37473011 C15.2242944 413.89566445 19.75693708 413.60012494 24.53649139 413.62473011 C26.02729218 413.65566761 26.02729218 413.65566761 27.54821014 413.68723011 C28.99260468 413.69496449 28.99260468 413.69496449 30.46617889 413.70285511 C31.78078094 413.71687366 31.78078094 413.71687366 33.12194061 413.73117542 C36.36791664 413.27557794 38.14503653 412.48655677 40.66149139 410.37473011 C41.43189934 407.53835126 41.43189934 407.53835126 41.32555389 404.28098011 C41.33199921 403.08601917 41.33844452 401.89105824 41.34508514 400.65988636 C41.32574921 399.4107848 41.30641327 398.16168324 41.28649139 396.87473011 C41.30582733 395.62562855 41.32516327 394.37652699 41.34508514 393.08957386 C41.33541718 391.29713245 41.33541718 391.29713245 41.32555389 389.46848011 C41.31991425 388.37213245 41.3142746 387.2757848 41.30846405 386.14621449 C40.91550123 383.20951413 40.91550123 383.20951413 38.44249725 381.51657581 C35.55398412 380.33058899 33.60597596 380.00081161 30.50133514 380.01144886 C29.54291718 380.01209339 28.58449921 380.01273792 27.59703827 380.01340199 C26.6076828 380.02951527 25.61832733 380.04562855 24.59899139 380.06223011 C23.60576874 380.05900745 22.61254608 380.0557848 21.58922577 380.05246449 C15.32893361 379.99689087 15.32893361 379.99689087 9.66149139 382.37473011 Z M57.48180389 382.19504261 C54.72290311 387.0142384 54.93427477 391.41636265 55.03649139 396.87473011 C55.01715546 397.90726917 54.99781952 398.93980824 54.97789764 400.00363636 C55.00726472 404.55553327 55.19642553 407.56236184 57.48180389 411.55441761 C62.30099968 414.31331839 66.70312393 414.10194673 72.16149139 413.99973011 C73.71029999 414.02873402 73.71029999 414.02873402 75.29039764 414.05832386 C79.84229455 414.02895678 82.84912312 413.83979598 86.84117889 411.55441761 C89.60007968 406.73522182 89.38870801 402.33309757 89.28649139 396.87473011 C89.30582733 395.84219105 89.32516327 394.80965199 89.34508514 393.74582386 C89.31571807 389.19392695 89.12655726 386.18709838 86.84117889 382.19504261 C82.02198311 379.43614183 77.61985886 379.64751349 72.16149139 379.74973011 C71.12895233 379.73039417 70.09641327 379.71105824 69.03258514 379.69113636 C64.48068824 379.72050344 61.47385967 379.90966424 57.48180389 382.19504261 Z M103.66149139 383.37473011 C102.89108344 386.21110897 102.89108344 386.21110897 102.99742889 389.46848011 C102.99098358 390.66344105 102.98453827 391.85840199 102.97789764 393.08957386 C102.99723358 394.33867542 103.01656952 395.58777699 103.03649139 396.87473011 C103.01715546 398.12383167 102.99781952 399.37293324 102.97789764 400.65988636 C102.98434296 401.8548473 102.99078827 403.04980824 102.99742889 404.28098011 C103.00306854 405.37732777 103.00870819 406.47367542 103.01451874 407.60324574 C103.40748156 410.53994609 103.40748156 410.53994609 105.88048553 412.23288441 C108.76899867 413.41887123 110.71700682 413.74864861 113.82164764 413.73801136 C115.2592746 413.73704456 115.2592746 413.73704456 116.72594452 413.73605824 C117.71529999 413.71994495 118.70465546 413.70383167 119.72399139 413.68723011 C120.71721405 413.69045277 121.71043671 413.69367542 122.73375702 413.69699574 C128.99404917 413.75256935 128.99404917 413.75256935 134.66149139 411.37473011 C136.77127961 407.15515368 135.84642015 401.57318552 135.84899139 396.93723011 C135.86736053 395.19989613 135.86736053 395.19989613 135.88610077 393.42746449 C135.88803436 392.3182262 135.88996796 391.20898792 135.89196014 390.06613636 C135.89606903 389.04721302 135.90017792 388.02828968 135.90441132 386.97848988 C135.84743301 384.13904774 135.84743301 384.13904774 133.66149139 381.37473011 C129.09868839 379.85379577 124.56604571 380.14933528 119.78649139 380.12473011 C118.79262421 380.10410511 117.79875702 380.08348011 116.77477264 380.06223011 C115.33037811 380.05449574 115.33037811 380.05449574 113.85680389 380.04660511 C112.54220184 380.03258656 112.54220184 380.03258656 111.20104218 380.0182848 C107.95506615 380.47388228 106.17794626 381.26290345 103.66149139 383.37473011 Z M150.66149139 383.37473011 C149.89108344 386.21110897 149.89108344 386.21110897 149.99742889 389.46848011 C149.99098358 390.66344105 149.98453827 391.85840199 149.97789764 393.08957386 C149.99723358 394.33867542 150.01656952 395.58777699 150.03649139 396.87473011 C150.01715546 398.12383167 149.99781952 399.37293324 149.97789764 400.65988636 C149.98434296 401.8548473 149.99078827 403.04980824 149.99742889 404.28098011 C150.00306854 405.37732777 150.00870819 406.47367542 150.01451874 407.60324574 C150.40716656 410.54037989 150.40716656 410.54037989 152.8826828 412.23068714 C155.75034233 413.41131028 157.70305116 413.76108697 160.78649139 413.77316761 C161.74039764 413.7770348 162.69430389 413.78090199 163.67711639 413.78488636 C164.66196014 413.7732848 165.64680389 413.76168324 166.66149139 413.74973011 C168.13875702 413.76713245 168.13875702 413.76713245 169.64586639 413.78488636 C171.07672577 413.77908558 171.07672577 413.77908558 172.53649139 413.77316761 C173.40016327 413.76978382 174.26383514 413.76640003 175.15367889 413.7629137 C178.36376515 413.26602535 180.16246648 412.46283601 182.66149139 410.37473011 C183.43189934 407.53835126 183.43189934 407.53835126 183.32555389 404.28098011 C183.33199921 403.08601917 183.33844452 401.89105824 183.34508514 400.65988636 C183.32574921 399.4107848 183.30641327 398.16168324 183.28649139 396.87473011 C183.30582733 395.62562855 183.32516327 394.37652699 183.34508514 393.08957386 C183.33541718 391.29713245 183.33541718 391.29713245 183.32555389 389.46848011 C183.31991425 388.37213245 183.3142746 387.2757848 183.30846405 386.14621449 C182.91581623 383.20908033 182.91581623 383.20908033 180.44029999 381.51877308 C177.57264045 380.33814994 175.61993163 379.98837325 172.53649139 379.97629261 C171.58258514 379.97242542 170.62867889 379.96855824 169.64586639 379.96457386 C168.16860077 379.9819762 168.16860077 379.9819762 166.66149139 379.99973011 C165.67664764 379.98812855 164.69180389 379.97652699 163.67711639 379.96457386 C162.24625702 379.97037464 162.24625702 379.97037464 160.78649139 379.97629261 C159.92281952 379.9796764 159.05914764 379.98306019 158.16930389 379.98654652 C154.95921764 380.48343487 153.16051631 381.28662422 150.66149139 383.37473011 Z M198.66149139 382.37473011 C196.55170318 386.59430654 197.47656264 392.1762747 197.47399139 396.81223011 C197.4617453 397.97045277 197.44949921 399.12867542 197.43688202 400.32199574 C197.43494843 401.43123402 197.43301483 402.5404723 197.43102264 403.68332386 C197.42691376 404.7022472 197.42280487 405.72117054 197.41857147 406.77097034 C197.47554978 409.61041248 197.47554978 409.61041248 199.66149139 412.37473011 C204.3821156 413.94827151 209.15486879 413.60053868 214.09899139 413.62473011 C215.1489328 413.64535511 216.19887421 413.66598011 217.28063202 413.68723011 C218.29190155 413.69238636 219.30317108 413.69754261 220.34508514 413.70285511 C221.73038422 413.71687366 221.73038422 413.71687366 223.14366913 413.73117542 C226.23965422 413.29288024 227.54742755 412.68694002 229.66149139 410.37473011 C230.27878549 407.52883628 230.27878549 407.52883628 230.19274139 404.28098011 C230.19789764 403.08601917 230.20305389 401.89105824 230.20836639 400.65988636 C230.19289764 399.4107848 230.17742889 398.16168324 230.16149139 396.87473011 C230.17696014 395.62562855 230.19242889 394.37652699 230.20836639 393.08957386 C230.20063202 391.29713245 230.20063202 391.29713245 230.19274139 389.46848011 C230.18822968 388.37213245 230.18371796 387.2757848 230.17906952 386.14621449 C229.90187521 383.30817696 229.90187521 383.30817696 227.95836639 381.51657581 C225.23556943 380.16299148 223.41444655 380.00158716 220.38024139 380.01144886 C219.37348358 380.01209339 218.36672577 380.01273792 217.32946014 380.01340199 C215.76131561 380.03757191 215.76131561 380.03757191 214.16149139 380.06223011 C213.11606171 380.05900745 212.07063202 380.0557848 210.99352264 380.05246449 C204.52137819 379.95678658 204.52137819 379.95678658 198.66149139 382.37473011 Z M9.81920624 427.53244495 C8.17187302 430.15386555 8.27294546 432.16733111 8.26305389 435.24973011 C8.25918671 436.39957386 8.25531952 437.54941761 8.25133514 438.73410511 C8.26293671 439.93551136 8.27453827 441.13691761 8.28649139 442.37473011 C8.27488983 443.57613636 8.26328827 444.77754261 8.25133514 446.01535511 C8.25520233 447.16519886 8.25906952 448.31504261 8.26305389 449.49973011 C8.26643768 450.55418324 8.26982147 451.60863636 8.2733078 452.69504261 C8.47336865 455.35153105 8.47336865 455.35153105 9.81920624 457.21701527 C12.44062684 458.86434849 14.45409239 458.76327605 17.53649139 458.77316761 C19.26125702 458.77896839 19.26125702 458.77896839 21.02086639 458.78488636 C22.22227264 458.7732848 23.42367889 458.76168324 24.66149139 458.74973011 C25.86289764 458.76133167 27.06430389 458.77293324 28.30211639 458.78488636 C29.45196014 458.78101917 30.60180389 458.77715199 31.78649139 458.77316761 C32.84094452 458.76978382 33.89539764 458.76640003 34.98180389 458.7629137 C37.63829233 458.56285285 37.63829233 458.56285285 39.50377655 457.21701527 C41.15110977 454.59559467 41.05003733 452.58212911 41.05992889 449.49973011 C41.06379608 448.34988636 41.06766327 447.20004261 41.07164764 446.01535511 C41.06004608 444.81394886 41.04844452 443.61254261 41.03649139 442.37473011 C41.04809296 441.17332386 41.05969452 439.97191761 41.07164764 438.73410511 C41.06778046 437.58426136 41.06391327 436.43441761 41.05992889 435.24973011 C41.0565451 434.19527699 41.05316132 433.14082386 41.04967499 432.05441761 C40.84961413 429.39792917 40.84961413 429.39792917 39.50377655 427.53244495 C36.88235595 425.88511173 34.8688904 425.98618417 31.78649139 425.97629261 C30.06172577 425.97049183 30.06172577 425.97049183 28.30211639 425.96457386 C27.10071014 425.97617542 25.89930389 425.98777699 24.66149139 425.99973011 C23.46008514 425.98812855 22.25867889 425.97652699 21.02086639 425.96457386 C19.87102264 425.96844105 18.72117889 425.97230824 17.53649139 425.97629261 C15.95481171 425.98136829 15.95481171 425.98136829 14.34117889 425.98654652 C11.68469046 426.18660737 11.68469046 426.18660737 9.81920624 427.53244495 Z M56.87736511 428.2506752 C55.37600893 430.87345001 55.27424437 432.60872044 55.26305389 435.62082386 C55.25918671 436.62306995 55.25531952 437.62531605 55.25133514 438.65793324 C55.26293671 439.6988512 55.27453827 440.73976917 55.28649139 441.81223011 C55.27488983 442.84928089 55.26328827 443.88633167 55.25133514 444.95480824 C55.25520233 445.95834339 55.25906952 446.96187855 55.26305389 447.99582386 C55.26643768 448.90775501 55.26982147 449.81968616 55.2733078 450.75925159 C55.79484963 454.27326268 56.21296764 455.71727682 58.66149139 458.37473011 C62.44260051 459.1646582 66.21232955 459.03571743 70.06188202 458.98996449 C71.23768326 458.9955135 72.4134845 459.00106251 73.62491608 459.00677967 C76.8504254 459.01657619 80.07488794 459.00395642 83.30029869 458.9804945 C86.67415186 458.96040234 90.0479691 458.96626419 93.42186737 458.96860218 C99.08798532 458.96854859 104.75377001 458.94878124 110.41979218 458.9167223 C116.97221999 458.87982839 123.52421117 458.87104645 130.0767293 458.87801981 C136.3777637 458.88432328 142.67864824 458.87357351 148.9796524 458.85405445 C151.66222009 458.84587582 154.34471123 458.84317174 157.02729034 458.84474659 C160.77213889 458.84295494 164.51636023 458.82162614 168.26110077 458.79465199 C169.37704117 458.79758259 170.49298157 458.80051319 171.64273834 458.8035326 C172.6606395 458.79218281 173.67854065 458.78083302 174.72728729 458.76913929 C175.61292107 458.76541058 176.49855484 458.76168186 177.411026 458.75784016 C180.13851273 458.29352394 181.03066151 457.57822876 182.66149139 455.37473011 C183.12457659 452.61926315 183.12457659 452.61926315 183.05992889 449.49973011 C183.06379608 448.34988636 183.06766327 447.20004261 183.07164764 446.01535511 C183.06004608 444.81394886 183.04844452 443.61254261 183.03649139 442.37473011 C183.04809296 441.17332386 183.05969452 439.97191761 183.07164764 438.73410511 C183.06778046 437.58426136 183.06391327 436.43441761 183.05992889 435.24973011 C183.05485321 433.66805042 183.05485321 433.66805042 183.04967499 432.05441761 C182.59712083 428.93037082 182.13046334 428.25227464 179.66149139 426.37473011 C177.35038244 425.92092398 177.35038244 425.92092398 174.72728729 425.98705006 C173.70938614 425.97714542 172.69148499 425.96724079 171.64273834 425.95703602 C170.52679794 425.96153767 169.41085754 425.96603931 168.26110077 425.97067738 C166.49739891 425.9603825 166.49739891 425.9603825 164.69806671 425.94987965 C161.47282556 425.93470025 158.24794599 425.93312139 155.0226841 425.93882203 C152.33118585 425.94190961 149.63974012 425.93582635 146.94824934 425.92978328 C140.59985211 425.91573113 134.25158943 425.91730537 127.90319061 425.92868519 C121.35072392 425.94017115 114.79866628 425.92608473 108.24625349 425.89928871 C102.62238411 425.87714988 96.99864332 425.87049006 91.37473345 425.87636513 C88.01495348 425.87973986 84.65543583 425.87728578 81.29569244 425.8601141 C77.55077593 425.84529814 73.80676933 425.8558128 70.06188202 425.87302113 C68.94594162 425.86335316 67.83000122 425.85368519 66.68024445 425.84372425 C65.66234329 425.85355839 64.64444214 425.86339252 63.5956955 425.87352467 C62.71006172 425.87373395 61.82442795 425.87394323 60.91195679 425.87415886 C58.50510767 426.18998448 58.50510767 426.18998448 56.87736511 428.2506752 Z M198.81920624 428.0597887 C197.42502334 430.84756648 197.27403334 432.76284047 197.26305389 435.87473011 C197.25918671 436.92660511 197.25531952 437.97848011 197.25133514 439.06223011 C197.26293671 440.15535511 197.27453827 441.24848011 197.28649139 442.37473011 C197.27488983 443.46785511 197.26328827 444.56098011 197.25133514 445.68723011 C197.25520233 446.73910511 197.25906952 447.79098011 197.26305389 448.87473011 C197.26643768 449.83379261 197.26982147 450.79285511 197.2733078 451.78098011 C197.73980779 454.89802152 198.3320348 456.24407687 200.66149139 458.37473011 C203.4113222 458.95911545 203.4113222 458.95911545 206.53649139 458.83566761 C207.68633514 458.83180042 208.83617889 458.82793324 210.02086639 458.82394886 C211.22227264 458.79945667 212.42367889 458.77496449 213.66149139 458.74973011 C214.86289764 458.74844105 216.06430389 458.74715199 217.30211639 458.74582386 C223.85480807 458.91612375 223.85480807 458.91612375 229.66149139 456.37473011 C230.12902558 453.49946456 230.12902558 453.49946456 230.05992889 450.12473011 C230.06379608 448.87691761 230.06766327 447.62910511 230.07164764 446.34348011 C230.06004608 445.03379261 230.04844452 443.72410511 230.03649139 442.37473011 C230.04809296 441.06504261 230.05969452 439.75535511 230.07164764 438.40598011 C230.06584686 436.53426136 230.06584686 436.53426136 230.05992889 434.62473011 C230.0565451 433.47488636 230.05316132 432.32504261 230.04967499 431.14035511 C229.9215744 430.22769886 229.79347382 429.31504261 229.66149139 428.37473011 C224.78860746 425.12614082 219.38859325 426.00587507 213.66149139 425.99973011 C212.46008514 425.97523792 211.25867889 425.95074574 210.02086639 425.92551136 C208.29610077 425.91971058 208.29610077 425.91971058 206.53649139 425.91379261 C205.48203827 425.90557484 204.42758514 425.89735706 203.34117889 425.88889027 C200.58697837 426.14262086 200.58697837 426.14262086 198.81920624 428.0597887 Z " fill="#000000" transform="translate(136.33850860595703,26.625269889831543)"/>
<path d="M0 0 C0.80601827 0.00377932 1.61203654 0.00755865 2.44247961 0.0114525 C3.29623977 0.00762695 4.14999993 0.0038014 5.02963161 -0.00014007 C7.90709598 -0.01050688 10.78436218 -0.006471 13.66183996 -0.0025093 C15.71797894 -0.00685371 17.77411629 -0.01203594 19.83025122 -0.01799697 C25.42721415 -0.03142656 31.02410973 -0.03196131 36.62108564 -0.02943367 C41.28596418 -0.02836676 45.95082894 -0.03324006 50.61570454 -0.03803909 C61.61595671 -0.04914772 72.61617473 -0.04956389 83.61642981 -0.04352492 C94.982905 -0.03748109 106.34925654 -0.04980348 117.71571064 -0.07109499 C127.45923403 -0.08867858 137.20271795 -0.09471753 146.94625664 -0.09145725 C152.77243964 -0.08963925 158.59853441 -0.09233187 164.42470312 -0.10617179 C169.90101778 -0.1186931 175.37713882 -0.11686035 180.8534503 -0.1037609 C182.86830919 -0.10138318 184.88318147 -0.10417218 186.89802504 -0.11238402 C189.63873937 -0.12275257 192.37879199 -0.11483129 195.11948156 -0.10207289 C196.32850897 -0.11313432 196.32850897 -0.11313432 197.56196117 -0.12441921 C199.7764411 -0.1025812 199.7764411 -0.1025812 203.28098059 0.27214891 C205.57881665 3.71890299 205.57852941 5.20543003 205.59348059 9.27214891 C205.61861731 10.84996141 205.61861731 10.84996141 205.64426184 12.45964891 C205.28098059 15.27214891 205.28098059 15.27214891 204.27071905 16.92412072 C201.11855228 19.05968262 197.76036288 18.68407857 194.08188391 18.65309983 C192.81327103 18.66011979 192.81327103 18.66011979 191.51902962 18.66728157 C188.67454821 18.67928313 185.83054401 18.66975426 182.98605871 18.6603325 C180.95109796 18.66439591 178.9161394 18.66973649 176.88118505 18.67626268 C171.34615907 18.6899695 165.81130035 18.68462373 160.27627134 18.67512542 C154.4920698 18.66754625 148.70788287 18.67456957 142.92368078 18.67928392 C133.20893286 18.68474656 123.49425329 18.67753652 113.77951574 18.66326219 C102.53743226 18.64693473 91.29551199 18.65222288 80.05343246 18.66874141 C70.41262633 18.68234179 60.77186941 18.68428302 51.13105679 18.6764254 C45.36802097 18.67174091 39.60506193 18.67114529 33.842031 18.68103486 C28.42478346 18.68968119 23.00774696 18.68372538 17.59052229 18.66635209 C15.59866261 18.66237475 13.60678526 18.6635425 11.61493254 18.67014009 C8.90307179 18.67829648 6.19189409 18.66810586 3.48007727 18.65309983 C2.68543585 18.659792 1.89079444 18.66648417 1.07207298 18.67337912 C-4.20476 18.61645311 -4.20476 18.61645311 -6.70875788 16.93998986 C-8.33369165 14.2573864 -8.07640141 11.79960203 -8.03151941 8.70964891 C-8.02765223 7.55335984 -8.02378504 6.39707078 -8.01980066 5.20574266 C-7.46472088 -0.20808747 -4.82906391 0.03853978 0 0 Z " fill="#000000" transform="translate(156.71901941299438,-0.27214890718460083)"/>
</svg>
